<?xml version="1.0" standalone="no"?>
<!DOCTYPE svg PUBLIC "-//W3C//DTD SVG 20010904//EN"
 "http://www.w3.org/TR/2001/REC-SVG-20010904/DTD/svg10.dtd">
<svg version="1.0" xmlns="http://www.w3.org/2000/svg"
 width="800.000000pt" height="1280.000000pt" viewBox="0 0 800.000000 1280.000000"
 preserveAspectRatio="xMidYMid meet">
<metadata>
Created by potrace 1.15, written by Peter Selinger 2001-2017
</metadata>
<g transform="translate(0.000000,1280.000000) scale(0.100000,-0.100000)"
fill="#000000" stroke="none">
<path d="M1425 12778 c-46 -66 -75 -115 -75 -128 -1 -25 -29 33 -30 61 -1 71
-103 66 -123 -6 -32 -112 -39 -135 -45 -135 -4 0 -22 34 -41 75 -37 83 -55 93
-90 49 -19 -24 -32 -58 -45 -116 -4 -16 -10 -28 -14 -28 -4 0 -23 36 -42 80
-34 79 -47 94 -74 84 -21 -8 -27 -28 -40 -128 -6 -50 -17 -91 -23 -93 -7 -3
-24 15 -39 39 -35 57 -52 70 -75 57 -11 -5 -19 -17 -19 -25 0 -15 -20 -67 -41
-106 -5 -10 -9 -29 -9 -43 0 -29 0 -29 -36 -10 -42 22 -51 19 -69 -19 -9 -18
-27 -44 -41 -57 -13 -12 -24 -30 -24 -39 0 -8 -7 -26 -16 -38 -10 -15 -14 -32
-9 -49 5 -20 -1 -37 -25 -70 -31 -43 -31 -44 -32 -171 -1 -84 -5 -134 -14
-147 -17 -28 3 -85 36 -102 l25 -13 -23 0 c-13 0 -32 5 -43 11 -23 12 -102
-20 -173 -71 -66 -48 -156 -177 -156 -225 0 -13 7 -11 33 9 19 15 38 26 42 26
5 0 0 -6 -10 -14 -17 -13 -16 -14 21 -20 22 -4 114 -6 204 -4 163 3 166 3 218
-24 30 -16 58 -28 63 -28 5 0 11 12 15 28 11 51 15 62 24 62 16 0 -9 -70 -39
-109 -17 -21 -31 -48 -31 -59 0 -11 -7 -25 -15 -32 -8 -7 -15 -21 -15 -31 0
-11 -9 -27 -20 -36 -11 -10 -20 -23 -20 -29 0 -6 -12 -24 -27 -40 -17 -18 -28
-41 -29 -62 0 -19 -6 -37 -12 -41 -18 -11 -23 -204 -6 -237 8 -14 14 -37 14
-50 0 -25 29 -82 64 -126 11 -14 31 -40 44 -56 12 -16 48 -43 80 -58 31 -16
59 -31 62 -34 12 -13 63 -30 89 -30 35 0 93 19 106 35 6 6 21 14 35 18 14 3
35 8 47 10 28 7 84 36 101 53 7 8 18 14 23 14 20 0 150 145 156 173 l6 28 18
-31 c23 -37 61 -40 83 -8 21 29 20 45 -1 51 -10 3 -1 5 20 6 30 1 47 9 71 34
46 46 106 153 106 188 0 17 9 44 20 59 11 16 18 35 15 43 -4 8 12 37 34 65 23
29 34 49 24 45 -10 -4 -14 -2 -10 4 4 6 -4 8 -21 5 -25 -4 -23 -1 21 38 52 46
79 84 52 74 -13 -5 -13 -2 0 30 20 46 20 86 0 86 -8 0 -15 -4 -15 -9 0 -5 -18
-11 -40 -15 -22 -3 -40 -11 -40 -16 0 -5 -8 -6 -17 -3 -11 4 -13 8 -5 11 7 2
10 8 6 13 -3 5 12 9 33 9 22 0 43 4 49 9 5 5 26 14 48 21 28 9 35 15 25 21
-10 6 -10 9 -2 9 7 0 10 7 7 15 -4 8 -14 15 -23 15 -22 0 -23 27 -2 35 12 5 7
10 -17 18 -19 7 -33 17 -33 22 1 6 -13 12 -31 15 -28 4 -33 9 -31 30 l3 25
-20 -24 c-18 -21 -20 -21 -20 -5 0 16 -4 15 -23 -8 -13 -17 -30 -26 -41 -24
-23 3 -56 -22 -56 -42 0 -9 -6 -12 -15 -8 -9 3 -18 -1 -21 -8 -3 -8 -13 -17
-21 -20 -14 -6 -14 -4 -2 11 8 9 22 25 32 35 9 10 17 23 17 29 0 5 4 8 9 5 5
-3 12 1 15 10 3 8 10 13 15 9 5 -3 12 -1 15 4 3 5 14 7 25 4 12 -3 24 3 34 17
10 14 16 17 19 9 3 -9 13 -7 35 9 30 21 31 21 26 2 -3 -11 0 -20 6 -20 5 0 8
-7 4 -16 -4 -10 -1 -15 8 -14 8 1 25 2 39 1 20 -1 22 -3 10 -11 -11 -7 -11
-10 -2 -10 7 0 10 -4 7 -10 -4 -6 8 -10 30 -10 20 0 34 -4 31 -9 -4 -5 0 -12
6 -14 7 -3 5 -6 -6 -6 -17 -1 -18 -3 -4 -18 19 -22 31 -66 15 -56 -6 4 -8 0
-4 -9 4 -11 -1 -18 -15 -21 -18 -5 -20 -11 -14 -51 6 -35 4 -46 -6 -46 -14 0
-45 -84 -40 -107 4 -21 -17 -56 -56 -91 -22 -20 -32 -36 -25 -38 7 -4 3 -19
-13 -47 -13 -23 -24 -54 -24 -69 0 -33 -72 -177 -103 -206 -12 -11 -34 -25
-49 -31 -19 -7 -37 -29 -58 -71 -31 -62 -46 -77 -36 -37 3 12 3 16 0 10 -3 -7
-11 -13 -18 -13 -7 0 -18 -10 -24 -22 -11 -21 -11 -21 -6 7 4 25 1 23 -21 -17
-30 -56 -40 -63 -19 -13 28 68 17 72 -44 14 -65 -63 -139 -118 -195 -144 -37
-17 -97 -82 -101 -110 -1 -8 -5 -18 -9 -21 -18 -18 -4 -25 15 -8 21 18 20 17
-2 -15 -13 -19 -19 -31 -12 -27 19 12 14 -1 -18 -45 -16 -23 -27 -46 -24 -51
3 -5 -18 -37 -47 -71 -30 -34 -45 -55 -34 -47 11 8 2 -7 -20 -34 -22 -28 -34
-46 -27 -42 18 11 15 -14 -5 -37 -11 -12 -12 -17 -4 -12 10 6 12 4 5 -6 -12
-20 -14 -39 -3 -39 5 0 3 -10 -4 -22 -9 -15 -11 -32 -7 -48 5 -14 8 -20 9 -14
1 5 8 19 16 30 15 18 15 18 8 0 -4 -13 -3 -17 5 -12 8 5 10 2 6 -8 -3 -9 -11
-13 -17 -9 -6 3 -7 1 -3 -5 4 -6 -11 -47 -34 -91 -45 -90 -48 -100 -23 -80 15
13 15 12 5 -8 -7 -12 -16 -34 -22 -50 l-10 -28 26 30 26 30 -27 -55 -26 -55
26 30 26 30 -15 -39 c-19 -46 -19 -49 -5 -41 5 4 -4 -22 -21 -57 -24 -48 -26
-57 -10 -38 19 22 20 22 11 3 -6 -12 -11 -30 -11 -40 0 -15 2 -16 11 -3 8 11
8 9 3 -10 -4 -14 -9 -37 -10 -51 -1 -14 -7 -36 -14 -49 -8 -15 -8 -20 -1 -16
15 10 13 -5 -4 -28 -17 -23 -20 -40 -5 -31 10 6 -12 -56 -47 -132 -13 -29 -17
-68 -18 -173 -2 -140 -6 -172 -26 -196 -6 -8 -14 -27 -16 -42 -8 -51 -11 -67
-19 -86 -6 -15 -4 -17 6 -11 9 5 11 4 6 -3 -13 -22 6 -37 21 -17 7 11 13 13
13 6 0 -7 5 -9 11 -5 6 3 3 -9 -6 -27 -20 -38 -32 -53 -22 -26 17 42 17 50 2
24 -11 -18 -13 -33 -7 -44 8 -14 12 -12 25 13 9 16 16 25 16 19 0 -5 -6 -21
-14 -35 -18 -32 -18 -40 0 -40 9 0 20 10 25 23 9 18 9 17 4 -10 -5 -28 -2 -33
20 -39 30 -7 37 -35 30 -114 -7 -91 -5 -286 4 -332 5 -24 7 -92 5 -153 -7
-167 -7 -167 5 -174 6 -4 16 -40 22 -81 7 -41 22 -100 34 -130 16 -40 20 -66
15 -95 -4 -22 -3 -49 1 -60 21 -56 29 -143 19 -215 -16 -117 -9 -272 11 -240
12 19 30 -212 23 -295 -5 -58 -3 -76 5 -71 8 5 12 -5 12 -31 1 -65 38 -213 41
-162 0 8 11 -28 24 -79 24 -95 78 -223 101 -243 7 -6 30 -53 50 -105 21 -52
42 -94 48 -94 17 -1 84 -110 105 -172 27 -78 51 -128 63 -128 5 0 6 5 2 12 -4
7 -3 8 4 4 7 -4 12 -18 12 -31 0 -19 4 -23 24 -19 16 3 26 -2 34 -19 l11 -22
0 24 c1 20 3 22 17 10 10 -8 14 -23 12 -41 -3 -19 0 -28 9 -28 8 0 12 -4 9 -9
-4 -5 -1 -11 6 -13 7 -3 19 -34 28 -71 l16 -66 -30 -31 c-21 -21 -25 -29 -12
-24 18 7 18 6 0 -21 l-19 -28 35 6 35 7 -25 -22 -25 -21 23 6 c22 5 23 4 8
-12 -24 -26 -19 -33 12 -18 15 8 38 18 51 22 23 7 23 7 7 -16 -19 -27 -21 -43
-4 -33 7 5 9 2 5 -9 -4 -11 3 -20 23 -29 l29 -13 -22 -12 c-12 -7 -16 -12 -8
-13 11 0 11 -3 1 -15 -11 -13 -7 -15 30 -15 35 0 41 -3 36 -16 -5 -13 -1 -15
24 -12 16 3 30 2 30 0 0 -12 -38 -31 -62 -32 -27 0 -50 -19 -26 -21 7 -1 2 -5
-12 -9 l-25 -8 27 -1 26 -1 -29 -52 c-33 -61 -36 -76 -12 -57 14 12 15 12 9 0
-7 -10 -2 -12 25 -7 19 3 28 3 21 0 -9 -4 -7 -11 8 -24 15 -13 17 -19 8 -23
-8 -3 -6 -6 6 -6 12 -1 16 -6 12 -17 -5 -12 -2 -15 11 -10 15 6 16 5 6 -5 -7
-7 -13 -24 -13 -38 0 -29 71 -93 190 -172 74 -48 130 -94 130 -107 0 -4 11
-15 24 -24 23 -17 24 -17 18 5 -5 20 -4 20 11 8 9 -7 17 -10 17 -7 0 4 22 -21
50 -56 125 -157 337 -368 371 -368 24 0 57 -44 70 -94 10 -37 8 -156 -4 -295
-3 -26 -1 -38 4 -30 6 10 9 7 10 -11 1 -17 3 -19 6 -7 8 29 23 19 23 -15 0
-22 3 -29 9 -20 6 10 11 2 16 -24 9 -53 14 -58 35 -39 18 16 19 15 26 -21 6
-31 9 -35 14 -19 5 15 12 4 28 -45 11 -36 23 -76 25 -90 3 -23 5 -22 21 14 21
47 28 43 17 -9 -5 -22 -11 -65 -14 -95 -5 -53 -5 -54 8 -25 14 29 14 30 15 5
1 -21 4 -19 20 18 11 23 21 42 23 42 3 0 3 -21 0 -47 -4 -47 -4 -47 11 -23
l15 25 1 -25 0 -25 24 30 24 30 20 -65 c18 -56 21 -60 21 -31 l1 34 30 -41
c17 -23 30 -51 30 -63 0 -23 46 -144 66 -174 14 -19 14 -19 14 0 0 18 1 18 16
-3 8 -12 21 -22 28 -22 37 0 62 -70 40 -111 -18 -35 -18 -45 -1 -30 11 8 14 7
14 -7 0 -9 -4 -23 -10 -29 -9 -13 3 -17 41 -16 6 1 12 -9 12 -21 1 -18 4 -16
18 11 17 31 18 31 39 15 16 -12 25 -32 29 -65 5 -32 10 -44 15 -35 6 9 9 7 9
-9 0 -35 17 -36 25 0 l7 32 10 -33 c10 -37 27 -38 43 -4 10 23 25 30 25 11 0
-5 4 -8 9 -5 16 10 34 -123 28 -207 -6 -70 -4 -84 11 -102 10 -11 27 -49 37
-84 19 -64 19 -64 -3 -103 -15 -28 -19 -45 -13 -61 7 -19 15 -222 12 -302 -1
-11 2 -42 5 -68 5 -37 2 -52 -11 -67 -11 -13 -18 -42 -21 -97 -2 -43 -6 -109
-8 -147 -2 -37 -9 -73 -15 -79 -6 -6 -11 -34 -11 -62 0 -63 -23 -88 -95 -106
-27 -6 -58 -15 -67 -20 -10 -5 -48 -9 -86 -9 -37 0 -73 -5 -78 -10 -6 -6 -55
-11 -110 -12 -97 0 -101 -1 -173 -42 -68 -38 -132 -99 -118 -112 3 -3 22 -1
42 6 30 10 38 9 48 -2 10 -11 31 -13 102 -8 91 7 181 34 216 65 15 15 89 39
89 29 0 -1 -19 -12 -42 -22 -24 -10 -49 -26 -57 -35 -7 -10 -21 -17 -31 -17
-9 0 -19 -3 -23 -6 -3 -4 -34 -17 -69 -29 -169 -63 -193 -76 -226 -124 -22
-32 -32 -58 -32 -85 0 -33 3 -37 18 -30 9 4 29 7 45 6 116 -6 134 -5 162 10
30 16 144 59 245 93 30 10 74 31 97 47 23 15 48 28 57 28 8 0 18 5 22 11 3 6
38 26 77 45 59 28 83 34 139 34 37 0 70 5 73 11 4 6 13 8 21 5 9 -3 17 2 20
12 3 9 8 23 10 31 3 8 7 12 10 9 2 -3 -4 -27 -14 -54 -28 -72 -29 -75 -57
-119 -43 -69 -48 -87 -35 -120 6 -16 18 -51 26 -77 19 -63 32 -68 66 -27 16
19 43 39 61 44 26 9 40 25 72 87 22 42 50 91 62 109 13 19 25 50 29 69 3 19
13 60 22 90 18 59 22 134 9 189 l-7 34 23 -34 c13 -19 48 -47 81 -65 41 -22
63 -41 72 -62 13 -33 49 -55 102 -65 39 -8 66 4 88 39 16 24 16 28 -12 82 -15
31 -36 63 -46 70 -10 7 -18 20 -18 27 0 18 -62 57 -116 73 -84 24 -118 58
-179 177 -55 106 -57 114 -65 215 -6 81 -5 114 6 145 20 58 17 91 -12 134 -21
33 -25 49 -23 103 1 34 -1 92 -5 128 -6 47 -4 88 7 145 9 46 19 164 22 280 3
110 11 219 17 243 6 23 8 45 5 48 -3 3 -27 -27 -54 -66 -42 -64 -48 -70 -53
-50 -5 23 -6 23 -33 -9 -15 -18 -27 -39 -27 -48 0 -9 -6 -13 -15 -9 -9 3 -15
0 -15 -10 0 -9 -5 -12 -12 -8 -7 5 -9 2 -6 -8 4 -9 10 -36 13 -62 7 -44 6 -46
-18 -46 -15 0 -31 9 -41 25 -21 32 -20 38 4 32 17 -4 20 0 20 33 0 21 -5 51
-10 65 -9 23 -8 26 5 21 10 -3 15 1 15 12 0 13 2 14 9 4 6 -11 10 -8 14 10 4
13 20 37 37 53 l30 29 0 -24 c0 -18 12 -7 51 51 69 100 80 113 91 97 6 -10 8
-10 8 0 0 6 31 43 70 80 38 37 70 73 70 79 0 6 10 32 22 59 12 27 26 69 33 94
l11 45 28 -41 c28 -42 69 -69 88 -57 7 4 9 0 5 -10 -4 -11 -1 -17 8 -17 8 0
15 -4 15 -10 0 -12 74 -50 120 -61 58 -13 110 -33 110 -42 0 -5 4 -6 9 -3 5 3
14 -8 20 -24 5 -17 17 -30 26 -30 9 0 15 -7 13 -16 -2 -11 12 -21 44 -34 26
-10 50 -15 53 -12 3 4 22 -11 41 -33 20 -24 31 -32 28 -20 -16 47 15 -4 36
-60 21 -59 33 -75 58 -75 9 0 11 10 7 38 l-6 37 24 -44 c16 -29 26 -40 32 -32
5 9 15 0 31 -26 l23 -38 2 40 1 40 13 -40 c7 -22 24 -60 38 -84 24 -41 25 -42
32 -20 4 13 14 35 22 48 12 18 17 21 24 10 6 -10 10 -7 17 11 5 14 18 33 29
43 19 16 21 16 38 -3 17 -19 16 -20 -14 -46 -17 -14 -31 -33 -31 -41 0 -9 -6
-13 -15 -9 -17 6 -45 -29 -45 -56 0 -10 -4 -18 -10 -18 -14 0 -13 -96 1 -122
14 -27 15 -558 0 -653 -6 -38 -11 -89 -11 -113 0 -23 -9 -60 -20 -81 -13 -27
-17 -49 -13 -74 3 -22 -2 -56 -15 -93 -16 -50 -19 -76 -14 -166 l5 -107 -36
-21 c-19 -12 -38 -27 -41 -35 -3 -8 -20 -21 -38 -30 -18 -8 -47 -24 -65 -36
-18 -11 -64 -29 -103 -40 -39 -12 -94 -32 -122 -46 -47 -24 -53 -24 -113 -13
-67 13 -86 7 -144 -38 -28 -22 -31 -20 64 -42 48 -11 55 -10 173 33 67 24 122
43 122 41 0 -13 -247 -112 -298 -119 -18 -3 -50 -18 -70 -34 -20 -16 -55 -33
-77 -37 -59 -10 -182 -69 -197 -94 -7 -12 -30 -30 -50 -41 -37 -19 -88 -76
-88 -97 0 -9 7 -9 27 0 17 7 78 10 153 9 91 -1 134 3 160 13 19 9 54 20 76 26
23 5 58 21 78 35 26 18 50 25 84 25 31 0 68 10 110 30 35 17 70 30 77 30 7 0
29 14 50 30 21 17 48 30 61 30 13 0 38 13 56 29 18 15 43 33 55 40 30 15 138
14 171 -3 39 -20 140 -129 145 -157 3 -13 10 -53 17 -89 6 -35 18 -77 26 -92
8 -15 14 -35 14 -46 0 -10 12 -29 26 -43 14 -13 38 -47 55 -75 36 -64 53 -79
66 -62 15 19 33 101 33 146 0 23 6 45 15 52 22 18 19 111 -5 165 -20 43 -46
260 -36 294 3 9 8 48 10 86 3 39 10 117 16 175 6 58 14 141 17 185 5 61 8 73
14 50 4 -16 7 -51 8 -77 0 -25 7 -59 15 -75 8 -15 19 -40 25 -55 6 -15 28 -38
50 -52 21 -14 46 -35 54 -46 20 -28 25 -18 42 81 27 152 -11 235 -150 329 -75
50 -81 60 -95 155 -19 136 -13 711 9 767 6 16 10 104 9 210 -1 128 2 190 11
206 7 13 11 33 9 45 -3 18 -10 12 -42 -36 -39 -57 -40 -58 -59 -39 -22 22 -24
19 57 106 25 26 43 52 40 57 -3 5 4 9 16 9 17 0 20 4 15 20 -5 16 4 32 35 66
52 57 96 152 105 226 5 43 10 56 20 52 11 -5 12 1 5 28 -13 42 -12 44 2 30 10
-10 15 -7 26 10 l13 23 -5 -25 -5 -25 18 22 c10 12 21 19 25 16 3 -3 9 8 12
25 4 18 11 29 16 26 5 -3 6 -15 2 -27 -7 -22 -6 -22 14 -3 12 10 22 28 24 40
3 21 3 21 21 1 10 -11 29 -35 44 -53 30 -39 42 -36 17 5 l-18 28 27 -24 c15
-14 27 -21 27 -16 0 5 12 -2 26 -16 l27 -24 -18 34 c-12 24 -13 32 -3 29 7 -3
18 5 24 16 5 12 18 20 27 20 9 -1 17 4 17 11 0 7 17 28 38 47 21 19 42 41 46
49 4 8 18 32 31 54 l25 40 0 -37 c0 -51 23 -50 38 1 7 21 12 47 13 57 0 14 4
11 13 -10 13 -28 13 -27 20 33 4 34 11 72 15 84 l8 21 12 -23 c20 -36 23 -18
5 24 -18 44 -14 94 11 132 23 35 30 21 9 -19 -16 -30 -16 -32 0 -19 14 12 16
12 10 -3 -12 -31 6 -15 36 31 21 34 30 42 30 28 1 -17 6 -15 31 15 28 31 30
32 24 10 -16 -54 -14 -53 17 10 31 62 33 70 33 177 0 108 1 111 19 95 18 -16
18 -16 13 3 -3 11 -9 43 -12 70 l-6 50 25 -30 c23 -26 26 -27 26 -10 0 13 7 7
19 -20 l19 -40 2 40 c2 39 3 39 10 10 l7 -30 8 40 c7 36 -1 101 -20 160 -3 11
3 4 14 -15 11 -19 20 -30 21 -25 1 24 -52 199 -71 237 -20 39 -20 41 -3 28 18
-15 18 -14 1 10 -26 37 -39 71 -42 106 -1 17 -6 37 -10 43 -4 7 -11 44 -16 84
-5 42 -21 97 -39 135 -28 61 -30 71 -30 188 0 120 1 124 19 112 26 -16 58 7
40 28 -9 11 -8 14 6 14 15 0 16 2 4 17 -13 15 -12 15 9 4 14 -7 22 -21 22 -37
l0 -24 39 20 c22 10 49 31 60 46 l21 27 0 -27 c0 -14 3 -26 6 -26 18 0 74 76
100 134 16 36 32 66 35 66 4 0 16 15 27 34 13 22 37 42 68 55 97 43 139 94
143 170 1 29 -1 33 -19 28 -25 -6 -25 -2 0 25 11 12 20 29 20 37 0 8 29 77 65
152 36 76 65 142 65 147 0 4 13 21 29 36 17 16 42 57 57 92 26 61 28 63 45 48
15 -13 22 -14 33 -5 11 10 15 8 18 -6 11 -45 41 99 48 227 3 74 8 124 10 110
2 -24 3 -24 10 5 6 24 8 26 9 8 0 -13 6 -23 11 -23 6 0 10 -19 10 -42 l1 -43
24 28 c27 30 45 85 45 137 0 19 12 64 27 99 25 59 26 64 10 76 -15 11 -16 13
-2 19 8 3 15 17 15 31 0 15 -4 24 -9 21 -10 -7 -9 70 2 80 11 12 8 26 -5 18
-7 -5 -8 -3 -3 6 4 7 2 16 -6 21 -10 6 -11 9 -1 9 6 0 12 5 12 11 0 6 -9 8
-22 3 l-23 -6 24 25 c14 16 20 30 15 38 -10 16 -6 98 6 118 6 12 11 8 23 -19
11 -25 16 -29 16 -15 1 17 3 18 11 5 9 -13 11 -13 20 0 8 12 10 12 10 1 0 -11
4 -11 18 2 10 10 22 14 25 10 9 -9 11 11 11 142 1 104 3 114 34 175 35 69 114
153 186 195 22 14 55 36 71 49 l30 25 -30 1 c-29 1 -29 2 10 16 22 8 61 36 88
64 38 40 47 57 47 85 0 31 -3 35 -27 35 -21 0 -24 3 -13 10 12 7 7 16 -23 45
-36 35 -73 93 -69 107 1 4 -19 13 -44 19 l-45 12 22 23 c19 20 20 24 6 24 -34
0 -16 18 26 26 l42 7 -32 11 c-50 17 -53 29 -6 23 24 -3 45 -2 48 3 5 8 -64
20 -129 21 -37 1 -38 2 -14 9 14 4 53 11 85 15 55 6 60 9 79 45 l21 38 -31 8
c-31 8 -31 8 12 11 l42 4 0 44 c0 29 -5 45 -15 49 -8 3 -12 12 -9 19 3 9 -12
29 -38 51 -37 32 -39 35 -15 26 46 -16 45 -12 -8 36 -48 43 -49 44 -20 39 l30
-6 -30 26 c-16 14 -40 28 -52 31 -32 9 -28 21 9 29 26 6 29 9 15 17 -10 5 -22
6 -27 3 -6 -3 -10 -1 -10 4 0 6 5 11 10 11 6 0 10 5 10 10 0 7 -8 7 -22 -1
-22 -12 -22 -11 -5 8 24 28 21 40 -5 17 l-22 -19 17 27 c16 26 16 28 -1 36 -9
5 -23 7 -30 5 -17 -6 -5 23 25 65 l24 32 -23 1 c-19 0 -16 3 11 13 41 15 52
36 19 37 -22 0 -22 1 -3 9 l20 9 -20 1 c-18 1 -18 2 4 11 41 16 77 47 78 67 1
16 -3 19 -20 14 -18 -4 -16 0 11 22 31 27 45 55 20 40 -7 -4 -2 5 11 19 16 18
24 38 24 64 0 43 -31 113 -42 95 -4 -7 -12 8 -19 33 -10 36 -16 45 -34 46 -20
0 -20 1 -5 8 16 6 15 10 -14 36 -26 22 -46 30 -93 34 l-61 7 40 22 40 23 -33
-7 -32 -6 6 59 c6 54 5 57 -10 38 -15 -19 -15 -18 -7 12 8 27 5 35 -15 54 -25
24 -38 19 -47 -16 -3 -13 -5 -7 -7 15 l-2 35 -19 -50 -19 -50 5 58 c4 45 3 57
-7 51 -7 -4 -6 1 3 12 9 10 19 44 23 75 3 30 14 80 25 111 19 56 19 57 -1 97
-24 49 -62 81 -94 81 -13 0 -24 5 -24 10 0 6 5 10 10 10 6 0 10 5 10 10 0 6
-6 10 -14 10 -7 0 -25 9 -40 21 l-26 20 21 28 c12 17 19 38 16 55 -3 28 -50
85 -70 87 -7 0 -3 4 8 8 18 7 17 10 -15 26 -26 14 -31 20 -17 23 29 6 19 22
-15 22 -39 0 -63 13 -54 29 4 6 2 11 -4 11 -6 0 -8 5 -4 12 5 8 2 9 -12 4 -15
-6 -14 -2 6 20 22 24 22 26 5 19 -11 -5 -33 -9 -50 -9 -29 -1 -30 1 -28 37 2
28 -1 36 -10 31 -8 -5 -7 -2 2 9 18 22 0 22 -42 1 -17 -9 -32 -13 -34 -8 -17
49 -83 113 -83 80 0 -8 -4 -18 -10 -21 -6 -4 -8 7 -4 27 l5 33 -22 -25 -22
-25 7 28 c6 27 6 27 -46 29 -81 2 -88 0 -163 -37 -66 -32 -138 -86 -287 -214
-58 -51 -57 -48 22 33 97 100 175 159 273 207 45 23 67 39 67 51 0 10 -5 18
-11 18 -6 0 -7 6 -2 13 4 6 -6 3 -22 -7 -30 -19 -30 -19 -12 1 27 31 20 34
-20 11 l-38 -21 34 36 c25 27 32 40 24 48 -8 8 -19 6 -42 -5 -41 -21 -40 -14
2 13 40 26 22 27 -43 2 -70 -27 -110 -58 -296 -236 -136 -130 -164 -153 -165
-133 0 13 -11 -7 -26 -47 -25 -71 -47 -108 -36 -64 5 21 2 20 -26 -11 -17 -19
-99 -123 -183 -230 -182 -235 -171 -222 -162 -185 13 58 -16 10 -122 -201 -58
-115 -103 -199 -99 -186 3 12 4 22 1 22 -3 0 -28 -73 -57 -162 -67 -214 -60
-197 -69 -173 -7 15 -9 10 -9 -21 -2 -90 -107 -428 -121 -388 -5 14 -11 4 -24
-41 -33 -117 -67 -194 -51 -112 l7 32 -26 -30 c-14 -16 -40 -56 -58 -88 -51
-90 -59 -98 -52 -59 4 17 4 32 2 32 -3 0 -21 -26 -41 -57 -19 -32 -48 -69 -63
-83 -16 -14 -22 -17 -15 -7 20 26 -1 21 -45 -11 -22 -16 -46 -29 -54 -29 -8 0
-53 -26 -99 -58 -110 -74 -215 -127 -237 -118 -14 5 -13 9 7 25 13 11 17 18 9
15 -8 -2 -58 -18 -110 -35 -82 -26 -204 -53 -316 -69 -38 -6 -122 35 -210 101
-74 55 -267 253 -259 266 3 5 -20 50 -51 100 -69 111 -102 197 -109 287 -4 47
-2 62 4 48 9 -20 10 -20 10 1 1 11 -8 54 -18 95 -10 41 -17 86 -14 100 2 14
-3 54 -13 90 -9 35 -18 75 -19 89 -1 14 -6 34 -10 45 -7 20 -6 20 9 1 23 -28
20 -11 -8 43 -13 25 -30 60 -37 76 -7 17 -15 34 -17 39 -3 5 0 6 7 2 6 -4 3 8
-8 26 -10 18 -27 67 -36 108 -19 82 -83 251 -120 317 -18 32 -19 40 -7 35 9
-3 4 9 -13 30 -20 26 -29 49 -30 80 -1 24 -12 63 -24 88 -25 53 -26 56 -4 39
15 -13 -60 102 -94 142 -16 20 -17 32 0 23 6 -4 -3 9 -20 27 -18 19 -33 40
-33 45 0 6 -9 19 -20 29 -11 10 -18 20 -16 23 6 6 -38 77 -83 132 -20 24 -36
47 -36 50 0 13 -106 178 -126 195 -12 11 -32 43 -44 70 -13 28 -52 89 -88 137
-36 48 -63 89 -60 92 3 3 -16 20 -41 38 -33 23 -42 34 -32 38 10 3 -2 14 -37
33 -70 37 -141 94 -125 100 8 3 6 6 -4 6 -10 1 -18 8 -18 15 0 8 -17 27 -37
43 -50 36 -139 125 -136 135 4 11 -88 82 -127 98 -29 12 -30 15 -14 21 14 5 1
10 -44 20 -43 9 -57 15 -45 20 13 5 7 10 -27 18 -34 10 -174 90 -240 139 -2 2
2 7 10 12 11 7 8 10 -15 11 -38 1 -109 27 -80 29 14 1 6 8 -24 22 -34 15 -41
22 -30 30 10 7 1 8 -29 5 -27 -3 -40 -1 -36 5 4 6 -2 8 -15 4 -68 -19 -67 -20
-21 29 l45 48 -64 -43 c-35 -23 -60 -37 -56 -30 10 16 -5 8 -53 -28 -18 -14
-34 -23 -37 -21 -9 10 78 110 91 105 7 -3 16 0 20 6 5 7 2 8 -6 3 -9 -5 -11
-4 -6 4 4 6 12 9 17 5 5 -3 26 8 47 24 56 43 70 49 38 14 -23 -25 -25 -30 -10
-27 11 2 21 4 24 6 3 1 10 3 15 4 6 0 32 11 59 23 27 12 56 22 66 22 27 0 110
70 116 99 3 14 10 47 17 73 9 42 8 53 -13 97 -12 28 -29 52 -36 55 -8 3 -14
11 -14 19 0 14 -74 89 -104 105 -13 6 -29 6 -48 0 -24 -9 -33 -7 -52 11 -28
26 -31 26 -51 -1z m-310 -470 c-14 -147 -34 -218 -72 -257 l-36 -36 18 35 c10
19 26 46 36 60 11 16 24 71 35 148 19 134 31 164 19 50z m154 -15 c-54 -89
-68 -109 -93 -133 l-27 -24 17 39 c14 33 109 155 121 155 3 0 -6 -17 -18 -37z
m42 -25 c-17 -24 -39 -54 -50 -67 -10 -14 -17 -30 -14 -37 2 -7 0 -15 -6 -19
-6 -3 -11 -1 -11 5 0 6 -5 8 -12 4 -15 -9 -14 -8 61 89 59 75 78 90 32 25z
m-150 -55 c-9 -27 -22 -57 -28 -68 -12 -19 -12 -19 -13 3 0 20 45 112 55 112
2 0 -4 -21 -14 -47z m-128 -70 c-12 -33 -73 -128 -73 -115 0 22 30 86 52 109
26 28 29 29 21 6z m387 -36 l-65 -10 63 -15 c74 -18 76 -29 2 -13 -83 18 -100
13 -39 -12 50 -21 112 -57 98 -57 -4 0 -39 14 -80 32 -59 25 -87 31 -142 31
-37 0 -66 1 -64 3 2 2 29 15 61 27 44 18 77 24 144 24 l87 1 -65 -11z m-485
-92 c-9 -32 -18 -55 -21 -52 -3 3 2 30 11 62 9 31 19 54 22 51 3 -2 -3 -30
-12 -61z m785 -150 c20 -22 15 -21 -24 9 -27 20 -51 34 -54 31 -5 -5 -42 49
-42 61 0 8 89 -67 120 -101z m30 80 c22 -14 40 -28 40 -30 0 -7 -49 19 -75 39
-32 24 -8 18 35 -9z m-345 0 c23 -10 25 -13 10 -14 -11 0 -33 6 -50 14 -23 10
-25 13 -10 14 11 0 34 -6 50 -14z m-518 -27 c-3 -7 -5 -2 -5 12 0 14 2 19 5
13 2 -7 2 -19 0 -25z m68 -88 c-25 -33 -43 -60 -39 -60 4 0 -1 -9 -11 -20 -10
-11 -14 -20 -10 -20 5 0 0 -8 -11 -18 -31 -29 -145 -75 -193 -78 l-46 -4 52
14 c29 7 70 25 92 39 45 30 122 105 118 115 -2 6 83 91 91 92 2 0 -18 -27 -43
-60z m891 9 c11 -19 -29 7 -51 32 l-20 23 32 -23 c18 -12 35 -27 39 -32z m127
-15 c26 -14 47 -27 47 -29 0 -7 -54 16 -105 44 -53 29 -5 16 58 -15z m-750
-42 c31 -30 34 -50 11 -98 -19 -39 -59 -64 -103 -64 -71 0 -113 127 -54 165
60 40 101 39 146 -3z m-707 -71 c36 -17 41 -22 37 -45 -6 -28 -23 -36 -23 -11
0 13 -7 15 -37 9 -21 -4 -51 -13 -66 -21 -16 -8 -31 -12 -34 -10 -2 3 21 17
52 31 62 28 65 46 7 46 -28 0 -33 3 -22 10 22 14 40 12 86 -9z m1449 -5 c35
-15 51 -31 18 -19 -13 5 -15 3 -9 -13 5 -14 -1 -11 -23 10 -44 42 -41 45 14
22z m246 -77 c24 -19 24 -19 -16 -3 l-40 16 25 -28 c13 -16 38 -44 55 -63 19
-22 23 -29 9 -20 -54 36 -124 110 -124 129 0 12 63 -10 91 -31z m-1701 -17 c0
-23 28 -37 103 -53 78 -17 86 -29 46 -70 -30 -32 -32 -22 -2 12 12 15 10 18
-24 32 -21 8 -57 18 -80 22 -46 7 -77 34 -67 59 8 22 24 20 24 -2z m1374 -18
c26 -14 45 -21 42 -15 -19 30 16 4 69 -51 56 -57 57 -59 15 -27 -24 19 -50 33
-58 31 -28 -6 -81 20 -107 54 -31 41 -25 42 39 8z m-893 -31 c13 -16 12 -17
-3 -4 -17 13 -22 21 -14 21 2 0 10 -8 17 -17z m-18 -20 c3 -10 16 -34 28 -53
18 -27 19 -32 5 -21 -21 18 -60 91 -47 91 5 0 11 -8 14 -17z m-19 -29 c3 -8 2
-12 -4 -9 -6 3 -10 10 -10 16 0 14 7 11 14 -7z m-617 0 c-3 -3 -12 -4 -19 -1
-8 3 -5 6 6 6 11 1 17 -2 13 -5z m246 -1 c-7 -2 -21 -2 -30 0 -10 3 -4 5 12 5
17 0 24 -2 18 -5z m-453 -48 c-14 -8 -29 -14 -35 -14 -5 0 1 6 15 14 14 8 30
14 35 14 6 0 -1 -6 -15 -14z m936 0 c16 -12 16 -14 3 -15 -9 0 -22 7 -29 15
-16 19 0 19 26 0z m1330 -14 c21 -15 48 -39 59 -52 17 -20 15 -20 -20 6 -63
46 -97 75 -87 75 5 0 27 -13 48 -29z m-1446 -12 c0 -6 -4 -7 -10 -4 -5 3 -10
11 -10 16 0 6 5 7 10 4 6 -3 10 -11 10 -16z m48 -14 c-3 -3 -9 2 -12 12 -6 14
-5 15 5 6 7 -7 10 -15 7 -18z m202 15 c13 -9 13 -10 0 -10 -8 0 -22 5 -30 10
-13 9 -13 10 0 10 8 0 22 -5 30 -10z m-97 -24 c27 -21 20 -28 -13 -11 -16 9
-30 18 -30 20 0 10 25 4 43 -9z m58 -6 l24 -21 -32 16 c-32 15 -42 25 -24 25
5 0 19 -9 32 -20z m-248 -15 c-3 -9 -8 -14 -10 -11 -3 3 -2 9 2 15 9 16 15 13
8 -4z m82 -35 l5 -35 -14 30 c-18 35 -21 64 -6 49 5 -5 12 -25 15 -44z m50 0
c2 -32 -17 -37 -23 -5 -3 10 0 15 7 11 14 -9 14 0 0 27 -9 18 -9 20 1 10 7 -7
14 -26 15 -43z m458 43 c-13 -2 -23 -8 -23 -13 0 -4 -15 -17 -32 -27 -18 -11
-41 -37 -52 -59 -10 -21 -25 -52 -32 -67 -8 -16 -14 -35 -14 -42 0 -17 -26
-97 -45 -140 -18 -41 -65 -199 -66 -221 0 -13 -2 -14 -6 -6 -3 8 0 39 7 70 9
45 9 64 -1 87 -6 17 -11 39 -10 51 2 20 -69 94 -103 107 -9 4 -16 15 -16 25 0
23 -20 42 -80 76 -54 31 -27 35 38 6 30 -13 46 -28 53 -49 6 -16 25 -39 43
-52 43 -29 86 -98 86 -138 0 -40 16 -32 26 11 3 18 13 42 20 53 7 11 20 47 27
80 8 33 22 74 31 90 24 45 20 53 -26 58 l-43 4 48 1 c42 2 50 6 65 32 9 16 23
30 30 30 7 0 11 4 7 9 -8 14 26 31 60 29 23 0 25 -2 8 -5z m731 -23 c23 -11
68 -47 101 -81 56 -58 57 -60 15 -28 -42 32 -46 27 -11 -15 34 -41 -23 2 -74
54 -27 29 -68 61 -90 71 -39 18 -39 19 -11 19 16 0 48 -9 70 -20z m-1124 -31
c0 10 10 5 29 -13 17 -16 30 -23 33 -16 2 6 14 0 28 -16 l25 -27 -25 14 c-14
7 -30 12 -36 11 -6 -1 -19 7 -28 17 -10 11 -24 17 -30 15 -7 -3 -20 6 -30 20
-24 38 -19 45 9 11 14 -17 25 -24 25 -16z m150 31 c24 -8 24 -8 -7 -9 -17 -1
-35 4 -38 9 -7 11 9 11 45 0z m-466 -40 c7 -24 6 -24 -8 -6 -9 11 -16 27 -16
35 0 21 16 2 24 -29z m427 9 c19 -16 20 -18 4 -10 -34 17 -51 31 -39 31 7 0
22 -9 35 -21z m1270 -31 c41 -36 109 -116 78 -93 -62 48 -162 146 -134 131 17
-8 42 -25 56 -38z m-503 21 c8 -12 15 -36 17 -53 2 -17 6 -44 10 -61 11 -43 1
-30 -33 48 -17 37 -26 64 -20 61 7 -5 9 -1 5 9 -9 24 6 21 21 -4z m-678 1 c24
-8 24 -8 -5 -9 -16 0 -37 4 -45 9 -12 8 -11 10 5 9 11 -1 31 -5 45 -9z m-476
-16 c3 -8 2 -12 -4 -9 -6 3 -10 10 -10 16 0 14 7 11 14 -7z m716 -24 c-11 -16
-25 -32 -31 -35 -10 -7 -42 -72 -44 -90 0 -5 -6 -20 -13 -32 -10 -18 -10 -23
0 -23 6 0 4 -6 -7 -13 -10 -8 -15 -19 -11 -25 4 -6 -3 -34 -15 -62 -25 -59
-35 -62 -15 -4 8 21 19 67 25 102 13 70 30 102 87 168 45 51 55 57 24 14z
m-783 -22 c-3 -7 -5 -2 -5 12 0 14 2 19 5 13 2 -7 2 -19 0 -25z m383 -62 c-1
-6 -19 9 -40 33 -22 24 -40 49 -40 55 1 6 19 -9 40 -33 22 -24 40 -49 40 -55z
m41 32 l22 -33 -31 29 c-34 32 -37 36 -23 36 5 0 20 -15 32 -32z m1364 -87
c-7 -6 -52 37 -78 74 -14 21 -4 15 31 -19 28 -28 49 -52 47 -55z m-351 -3 c15
-39 25 -72 23 -74 -4 -5 -77 147 -77 160 0 26 32 -24 54 -86z m-958 10 c16
-18 22 -27 13 -20 -9 6 -19 9 -22 5 -4 -3 -16 2 -27 12 -18 16 -15 30 6 35 0
0 13 -14 30 -32z m664 -32 c0 -51 -6 -43 -14 19 -4 34 -3 45 4 35 5 -8 10 -33
10 -54z m415 -6 c19 -38 33 -70 31 -70 -7 0 -53 79 -65 113 -19 49 -2 28 34
-43z m-215 -42 c11 -51 29 -120 40 -152 24 -70 20 -84 -9 -29 l-20 38 -2 -50
-1 -50 -10 50 c-5 28 -18 90 -28 139 -11 49 -18 91 -15 94 3 3 5 -2 5 -11 0
-9 4 -18 10 -22 5 -3 7 15 3 47 -9 81 6 51 27 -54z m406 -53 c19 -38 28 -61
19 -50 -9 11 -32 52 -51 90 -19 39 -28 61 -19 50 9 -11 32 -51 51 -90z m-504
-43 c-7 -37 -16 -94 -21 -127 l-10 -60 5 75 c15 231 17 247 27 212 7 -22 6
-54 -1 -100z m161 7 l6 -54 -14 43 c-7 23 -16 64 -19 90 l-6 47 14 -36 c7 -19
16 -60 19 -90z m130 84 c23 -37 57 -126 57 -147 -1 -14 -45 70 -70 134 -23 59
-19 64 13 13z m-402 -99 c-6 -22 -24 -61 -41 -89 l-30 -50 0 70 c0 62 2 67 13
46 18 -36 30 -31 45 22 7 27 16 47 18 44 3 -3 1 -22 -5 -43z m771 -83 c32 -38
94 -141 85 -141 -3 0 -19 23 -37 50 -35 55 -54 70 -22 18 23 -38 76 -167 71
-172 -2 -2 -36 62 -74 141 -39 78 -67 143 -63 143 3 0 21 -18 40 -39z m-296
-54 c14 -27 29 -60 35 -75 l9 -27 -20 25 c-26 30 -70 119 -70 140 0 13 1 13
11 0 5 -8 21 -37 35 -63z m78 17 c42 -68 120 -243 112 -251 -5 -6 -52 89 -78
156 -6 18 -11 22 -17 13 -5 -8 -17 12 -34 55 -41 104 -36 111 17 27z m410 -26
c18 -29 37 -64 41 -78 l7 -25 -18 25 c-9 14 -35 44 -58 68 -22 23 -36 42 -30
42 5 0 15 -5 22 -12 7 -7 12 -8 12 -2 0 5 -5 15 -12 22 -7 7 -9 12 -5 12 4 0
22 -24 41 -52z m-599 -118 c9 -141 -19 -76 -48 110 l-6 35 19 -40 19 -40 -4
50 c-4 46 -4 47 5 15 5 -19 12 -78 15 -130z m-177 -15 c0 -71 -3 -99 -8 -80
-11 43 -11 235 0 210 5 -11 8 -69 8 -130z m307 24 c14 -27 28 -70 30 -97 l5
-47 -34 70 c-58 120 -59 189 -1 74z m261 -49 c3 0 2 5 -1 10 -3 6 -4 10 -1 10
13 0 101 -199 91 -208 -2 -2 -12 13 -23 35 -11 21 -41 67 -67 102 -25 35 -41
60 -35 56 9 -5 10 -1 5 16 -16 51 -16 53 5 17 11 -21 23 -38 26 -38z m-935
-63 c-20 -56 -70 -151 -77 -144 -2 2 8 33 22 68 55 134 93 188 55 76z m514
-61 c3 -39 8 -91 11 -116 3 -29 1 -40 -4 -30 -13 21 -32 160 -31 223 1 46 2
48 9 23 5 -16 12 -61 15 -100z m651 26 c19 -31 34 -50 34 -42 0 8 21 -30 45
-84 25 -55 43 -101 41 -103 -9 -10 -145 223 -161 277 -10 35 3 19 41 -48z
m-898 -12 c-4 -52 -2 -58 11 -47 12 10 13 8 7 -13 -4 -14 -17 -62 -28 -108
-11 -45 -22 -81 -24 -79 -4 4 13 223 22 275 8 54 17 36 12 -28z m669 -3 c17
-34 44 -107 38 -107 -4 0 -85 147 -85 156 0 13 32 -20 47 -49z m-839 -89 c-5
-119 -43 -366 -55 -354 -2 2 3 62 11 133 19 162 23 223 14 223 -5 0 -8 -8 -9
-17 0 -11 -3 -13 -6 -5 -5 14 34 152 44 152 3 0 3 -60 1 -132z m507 60 c9 -35
15 -87 13 -118 l-3 -55 -17 66 c-23 88 -34 184 -21 176 6 -4 18 -35 28 -69z
m-741 7 c-26 -31 -48 -54 -50 -53 -1 2 0 26 4 53 5 49 6 49 17 22 l11 -27 29
30 c46 48 41 35 -11 -25z m1221 -25 c-5 20 -1 17 20 -13 15 -21 29 -36 32 -33
5 4 83 -147 83 -161 0 -3 -8 1 -17 8 -11 9 -7 -2 10 -31 28 -50 90 -220 82
-228 -3 -3 -5 1 -6 9 0 8 -4 5 -8 -6 -7 -17 -10 -12 -20 25 -6 25 -19 65 -29
90 -9 25 -17 52 -18 61 -1 10 -14 37 -31 60 -48 72 -48 73 -30 66 27 -10 20 3
-31 62 -50 59 -82 105 -82 118 1 4 12 -5 26 -22 25 -29 25 -29 19 -5z m4150
20 c121 -18 224 -80 266 -161 22 -44 25 -97 6 -124 -13 -16 -14 -15 -9 13 12
86 -43 168 -147 219 -54 27 -62 28 -201 27 -114 0 -164 -5 -234 -22 -49 -12
-91 -20 -93 -18 -9 8 195 61 267 69 63 7 74 7 145 -3z m-5535 -87 c-23 -43
-46 -82 -52 -88 -6 -5 4 16 21 48 18 31 28 57 22 57 -5 0 -13 -4 -16 -10 -3
-5 -16 -15 -28 -21 -12 -6 2 14 32 45 30 30 57 54 59 51 2 -2 -15 -39 -38 -82z
m1070 -19 c28 -110 24 -145 -6 -49 -29 93 -42 170 -24 143 6 -10 20 -52 30
-94z m-1269 32 c-36 -57 -58 -67 -27 -11 16 28 31 54 34 60 3 5 7 4 10 -3 2
-7 -6 -27 -17 -46z m943 -151 l7 -80 -20 40 c-23 48 -25 45 -7 -15 19 -64 31
-195 17 -186 -14 9 -14 7 4 -44 8 -24 13 -45 11 -47 -10 -10 -29 44 -50 140
l-23 102 -16 -50 -15 -50 4 65 c4 64 4 64 -9 30 -13 -33 -14 -30 -13 60 1 52
-2 113 -7 135 l-7 40 20 -35 19 -35 -4 35 -5 35 19 -42 c19 -40 35 -59 27 -30
-3 6 -7 25 -11 41 -5 24 -4 27 7 18 11 -9 13 -4 11 26 -2 34 -1 32 16 -18 10
-30 21 -91 25 -135z m615 39 c43 -86 48 -99 30 -88 -7 4 -10 3 -7 -2 44 -94
86 -220 75 -230 -6 -7 -157 391 -157 414 0 15 22 -19 59 -94z m4081 -8 c-399
-137 -610 -292 -995 -732 -232 -265 -238 -272 -214 -234 51 78 229 311 310
405 250 292 532 478 864 570 167 47 184 43 35 -9z m-4424 -13 c10 -15 11 -14
8 12 -4 23 1 18 17 -20 34 -80 58 -188 64 -288 l6 -92 -35 130 c-19 72 -48
167 -65 213 -17 46 -31 86 -31 90 1 7 16 -12 36 -45z m648 -55 c13 -29 27 -69
31 -88 8 -39 66 -173 72 -167 4 4 -3 23 -31 90 -29 66 -6 39 25 -30 34 -76 73
-205 83 -273 6 -41 4 -38 -23 30 -16 41 -59 136 -95 210 -38 77 -65 143 -62
154 3 10 -4 42 -15 70 -21 57 -21 56 -13 56 3 0 16 -24 28 -52z m-789 -67 c8
-40 14 -87 14 -104 l-2 -32 -5 30 c-4 29 -5 29 -23 -20 l-19 -50 5 49 c3 27 5
85 5 129 0 44 2 78 5 76 2 -3 11 -38 20 -78z m-1079 2 c-20 -58 -20 -63 1 -38
l16 20 -8 -20 c-4 -11 -23 -58 -41 -105 -18 -47 -33 -82 -34 -78 -2 47 70 304
78 279 2 -6 -3 -32 -12 -58z m-267 -5 c-36 -72 -44 -84 -35 -48 7 23 4 22 -23
-10 -35 -41 -41 -33 -9 13 20 31 89 107 95 107 2 0 -11 -28 -28 -62z m1680
-11 c28 -59 62 -147 56 -147 -3 0 -19 28 -36 62 -18 35 -39 74 -47 87 -9 13
-17 32 -17 42 -2 28 20 6 44 -44z m601 32 c0 -6 -4 -7 -10 -4 -5 3 -10 11 -10
16 0 6 5 7 10 4 6 -3 10 -11 10 -16z m-1704 -51 c-4 -35 -10 -76 -12 -93 -5
-29 -5 -29 10 -11 9 11 16 17 16 13 0 -20 -55 -171 -80 -217 -34 -65 -38 -57
-9 19 14 39 68 310 69 349 0 1 3 2 6 2 4 0 3 -28 0 -62z m5789 -21 c-74 -114
-170 -298 -205 -396 -17 -45 -30 -85 -30 -90 0 -5 30 -16 68 -25 202 -50 322
-177 322 -342 0 -147 -91 -194 -302 -160 -115 19 -210 21 -241 5 -12 -7 -40
-26 -62 -44 -42 -34 -124 -79 -131 -72 -2 2 19 18 46 36 51 33 80 73 80 111 0
17 6 20 48 20 26 0 105 -11 177 -25 213 -41 294 -32 341 41 40 60 8 225 -60
302 -39 44 -145 95 -263 124 -75 19 -115 22 -263 22 -148 0 -187 -4 -250 -22
-41 -11 -76 -19 -78 -17 -9 8 143 46 224 56 64 8 118 8 202 -1 63 -6 118 -8
122 -3 4 4 19 44 34 88 38 110 123 286 180 370 46 68 43 65 -101 -80 -82 -82
-166 -170 -187 -195 l-38 -45 31 44 c88 126 344 381 382 381 5 0 -16 -38 -46
-83z m-6367 -84 c-95 -128 -111 -159 -48 -93 35 37 44 43 28 20 -83 -117 -122
-169 -125 -166 -8 7 41 123 71 168 40 60 129 168 135 163 2 -2 -26 -44 -61
-92z m2312 -49 c42 -84 50 -112 25 -78 -19 25 -19 22 10 -70 27 -89 27 -117
-1 -34 -9 29 -41 114 -70 188 -45 113 -49 130 -28 105 14 -16 43 -66 64 -111z
m3800 82 c0 -2 -42 -30 -92 -61 -164 -102 -275 -184 -390 -288 l-113 -102 50
64 c96 122 180 188 405 315 140 78 140 79 140 72z m-4743 -93 c-3 -10 -5 -4
-5 12 0 17 2 24 5 18 2 -7 2 -21 0 -30z m743 -80 c25 -80 50 -205 49 -240 0
-16 -7 -1 -14 35 -8 35 -30 110 -50 166 -19 57 -35 112 -35 122 1 18 1 18 16
-1 8 -11 23 -48 34 -82z m-1769 -75 c-6 -17 -8 -34 -5 -39 2 -5 -3 -23 -12
-41 -16 -32 -16 -32 1 -18 14 11 12 4 -7 -30 -14 -25 -33 -71 -42 -103 -11
-37 -22 -57 -30 -55 -8 2 -23 -8 -35 -22 l-21 -25 21 55 c44 114 88 252 104
327 9 43 19 85 23 93 11 25 14 -111 3 -142z m639 -148 c3 -155 6 -151 25 32
l14 133 -3 -125 c-4 -141 -27 -266 -87 -464 -36 -122 -59 -178 -45 -111 43
209 58 333 64 535 5 191 7 211 18 175 7 -22 13 -101 14 -175z m-629 117 c-10
-9 -11 -8 -5 6 3 10 9 15 12 12 3 -3 0 -11 -7 -18z m1094 -61 c4 -17 5 -65 3
-106 l-3 -75 -21 65 c-12 36 -24 83 -28 105 -6 39 -6 40 9 15 16 -25 16 -25
13 18 -3 37 -2 41 9 26 7 -10 15 -31 18 -48z m-1551 -22 c-5 -27 -4 -35 5 -30
6 4 11 5 11 3 0 -12 -73 -112 -80 -110 -5 1 -21 -27 -36 -64 -16 -36 -30 -61
-32 -55 -8 26 63 246 77 238 4 -3 18 8 30 24 28 39 33 38 25 -6z m2446 -106
c17 -32 42 -101 56 -154 31 -123 30 -157 -1 -44 -30 111 -56 176 -94 235 -17
27 -31 54 -31 59 1 17 36 -32 70 -96z m-18 -262 c32 -98 57 -181 55 -183 -15
-14 -198 464 -196 512 1 38 82 -150 141 -329z m-441 210 c12 -21 16 -36 9 -31
-9 5 -10 2 -6 -11 41 -134 48 -301 19 -479 l-18 -110 -7 175 c-6 175 -39 381
-67 426 -11 17 -11 16 -6 -6 3 -15 -4 -7 -19 20 -19 36 -22 53 -17 85 l6 40
26 -60 c15 -33 39 -113 54 -178 15 -64 30 -116 32 -114 12 12 -52 266 -84 332
-13 27 -11 26 21 -10 19 -22 45 -57 57 -79z m-1961 75 c-15 -29 -12 -38 5 -15
19 25 19 18 -4 -42 -11 -28 -22 -79 -26 -115 l-6 -64 31 64 c29 62 51 81 30
27 -7 -20 -7 -25 1 -20 15 9 3 -79 -17 -121 l-14 -30 4 38 c7 59 -9 35 -46
-66 -27 -75 -34 -86 -36 -62 -2 17 4 61 12 100 8 38 13 71 12 73 -2 1 -22 -34
-44 -79 -47 -89 -53 -80 -27 42 17 80 58 183 98 247 27 42 47 59 27 23z m1750
-224 c19 -89 10 -90 -21 -3 -21 60 -27 159 -13 211 7 24 10 10 16 -65 4 -52
12 -117 18 -143z m-175 102 c-13 -41 -23 -63 -20 -49 3 14 8 52 11 85 8 81 14
97 25 64 7 -19 3 -44 -16 -100z m-781 32 c-59 -86 -93 -154 -94 -186 0 -15 8
-11 43 23 l44 43 -44 -86 c-48 -97 -55 -132 -24 -115 17 8 16 4 -7 -31 l-27
-41 -3 88 c-2 49 0 123 3 164 l6 75 76 73 c42 39 78 72 79 72 2 0 -22 -36 -52
-79z m600 -101 l-8 -85 -7 50 c-16 105 -26 190 -23 194 2 2 8 -7 12 -20 9 -23
10 -23 18 11 l9 35 3 -50 c2 -27 0 -88 -4 -135z m-233 42 c20 -50 23 -74 22
-207 0 -172 11 -138 23 69 7 125 8 128 23 100 26 -47 20 -188 -12 -311 -28
-105 -87 -277 -93 -271 -2 2 4 62 12 133 15 121 14 292 -1 405 -4 30 -3 29 9
-10 l14 -45 1 35 c1 20 -7 66 -18 102 -22 80 -11 80 20 0z m499 -38 c10 -44
30 -112 44 -153 15 -41 26 -77 26 -80 -1 -13 -62 94 -80 138 -19 50 -25 89
-22 150 3 48 10 35 32 -55z m-1219 -13 c-32 -62 -25 -70 14 -15 43 60 45 52 5
-16 -58 -99 -74 -134 -56 -127 9 4 16 5 16 3 0 -6 -49 -110 -60 -126 -5 -8
-17 -42 -27 -75 l-18 -60 -3 90 c-4 93 9 278 16 237 3 -20 6 -21 19 -10 14 12
15 9 10 -22 -4 -19 -9 -55 -12 -80 l-5 -45 11 40 c31 119 53 182 75 217 32 51
42 43 15 -11z m5873 -6 c50 -13 109 -31 131 -39 45 -18 37 -17 -113 16 -133
30 -399 32 -516 4 -67 -15 -77 -20 -60 -29 72 -40 53 -122 -39 -169 -60 -30
-276 -101 -252 -82 11 9 76 43 145 76 69 34 133 68 143 76 25 22 21 57 -9 81
-31 24 -103 28 -198 10 -31 -5 -63 -8 -69 -6 -13 4 97 24 183 32 30 2 98 14
150 26 203 44 345 45 504 4z m-874 -75 c-34 -11 -60 -11 -35 0 11 5 29 8 40 8
16 0 15 -2 -5 -8z m-3859 -75 c1 6 7 -8 14 -30 l13 -40 1 40 c1 62 17 32 50
-95 37 -145 51 -246 51 -368 0 -81 -18 -203 -31 -217 -2 -2 -5 45 -5 103 -2
114 -20 209 -75 382 -28 89 -60 243 -58 279 0 9 9 -2 20 -24 10 -22 19 -35 20
-30z m730 -150 c13 -47 23 -119 25 -175 l4 -95 -29 105 c-16 58 -45 145 -65
194 -38 95 -41 122 -5 62 11 -20 23 -36 24 -36 4 0 -21 88 -36 127 -19 52 -6
35 26 -32 19 -38 44 -106 56 -150z m3134 121 c-134 -49 -166 -62 -263 -109
-37 -18 -76 -36 -87 -40 -20 -7 -20 -7 -1 8 74 57 380 180 456 183 8 1 -39
-19 -105 -42z m-4075 -209 c6 -29 6 -87 2 -132 l-7 -80 -32 110 c-46 158 -50
181 -20 120 30 -58 32 -52 12 30 -8 33 -15 69 -14 80 0 34 49 -71 59 -128z
m-374 -62 c-13 -65 -13 -71 5 -107 23 -44 25 -59 4 -32 -18 24 -19 16 -1 -27
25 -63 28 -86 4 -44 l-22 40 -8 -65 c-13 -108 16 -287 68 -418 l15 -37 -22 25
c-80 93 -169 378 -169 539 0 62 18 186 26 178 2 -2 10 -81 19 -177 17 -198 30
-243 20 -68 -4 64 -5 131 -1 150 7 39 67 139 73 122 2 -6 -3 -41 -11 -79z
m-520 -347 c17 -49 29 -88 27 -88 -2 0 -28 37 -57 83 -79 120 -110 228 -90
305 10 37 24 25 24 -20 0 -40 22 -154 32 -163 2 -2 2 28 0 66 -3 42 1 89 9
117 l14 47 6 -130 c5 -108 11 -145 35 -217z m1801 205 c19 -46 54 -209 43
-197 -10 11 -130 312 -130 328 0 15 69 -89 87 -131z m-136 -18 c18 -99 18 -99
14 -30 -3 39 -7 93 -10 120 l-5 50 22 -45 c26 -54 35 -215 23 -417 l-8 -128
-33 235 c-40 290 -49 375 -33 340 6 -14 19 -70 30 -125z m-72 3 c0 -62 -4
-135 -8 -163 l-7 -50 -27 80 c-28 84 -36 125 -11 65 l14 -35 -5 60 -4 60 12
-42 c7 -23 14 -44 17 -47 3 -2 4 38 2 90 -2 62 0 94 7 94 7 0 11 -39 10 -112z
m-839 -13 l19 40 0 -93 c1 -51 7 -114 14 -140 l12 -47 5 70 5 70 13 -55 c22
-91 25 -174 12 -259 -7 -45 -16 -81 -19 -81 -4 0 -18 68 -31 151 -13 84 -26
147 -28 141 -1 -5 8 -126 22 -268 37 -379 37 -371 27 -354 -11 19 -84 306
-106 420 -11 51 -15 106 -12 138 6 53 5 54 -14 36 -23 -21 -23 -24 1 71 11 43
20 95 20 115 0 21 8 62 18 91 l17 54 4 -70 3 -70 18 40z m1256 -1 c14 -47 23
-88 20 -91 -2 -3 -14 28 -26 68 -31 106 -32 109 -26 109 3 0 17 -39 32 -86z
m-1046 -104 c1 -36 7 -83 14 -105 l13 -40 7 52 c20 133 42 22 40 -197 -2 -162
-29 -322 -85 -496 -17 -53 -29 -98 -26 -100 5 -5 61 136 77 196 7 25 25 110
40 190 l28 145 2 -90 1 -90 19 35 c24 43 24 39 5 -45 -61 -262 -159 -439 -307
-556 l-37 -30 43 83 c76 143 142 363 161 534 9 84 -14 209 -70 373 -46 137
-56 195 -14 79 35 -93 34 -47 0 55 -16 48 -27 87 -25 87 7 0 48 -87 70 -150
l23 -65 -6 86 c-3 47 -2 117 3 155 l8 69 7 -55 c4 -30 8 -84 9 -120z m1025 59
c10 -19 26 -43 36 -55 12 -13 34 -83 59 -190 22 -93 40 -173 39 -179 0 -5 -15
33 -33 85 -17 52 -58 156 -89 231 -38 91 -57 149 -56 175 l0 39 14 -36 c7 -20
21 -51 30 -70z m-859 -79 l7 -75 14 49 c8 26 16 47 17 45 2 -2 -2 -38 -10 -79
-7 -41 -13 -86 -13 -100 0 -24 0 -24 14 5 l13 30 -6 -39 c-3 -23 -1 -37 4 -33
6 3 6 -32 1 -91 -4 -53 -6 -112 -3 -129 9 -60 -12 -34 -28 35 -23 97 -35 191
-42 350 -6 113 -4 143 7 155 12 13 14 11 16 -17 2 -17 6 -65 9 -106z m1038 34
c41 -119 89 -294 83 -300 -5 -6 -80 217 -102 306 -9 36 -19 74 -22 85 -3 11
-3 17 1 14 3 -3 21 -50 40 -105z m-802 -192 c-2 -90 -8 -160 -12 -155 -8 7
-90 266 -90 281 0 3 7 -3 15 -14 14 -18 14 -17 5 9 -5 16 -10 31 -10 35 1 14
25 -34 41 -83 13 -38 18 -44 18 -24 1 14 6 41 12 60 6 19 13 40 15 48 9 30 11
0 6 -157z m148 -4 c13 -93 29 -116 31 -45 2 40 10 -26 25 -190 3 -35 9 -63 12
-63 4 0 8 33 10 74 1 40 8 93 15 117 13 42 14 36 20 -116 6 -172 27 -271 72
-352 13 -24 20 -43 16 -43 -13 0 -99 95 -116 129 -9 19 -28 88 -41 155 -25
124 -92 337 -125 394 -26 45 -15 40 21 -10 l30 -41 1 84 c1 93 3 86 29 -93z
m876 -32 c43 -70 130 -195 192 -278 128 -170 115 -169 -63 6 -107 105 -155
167 -220 281 l-28 50 28 -25 c15 -14 50 -55 77 -92 28 -38 53 -68 55 -68 5 0
2 4 -46 79 -35 56 -111 212 -111 227 0 5 8 -4 18 -21 10 -16 54 -88 98 -159z
m-2872 61 c-10 -23 -25 -53 -33 -66 -14 -22 -16 -22 -28 -6 -20 29 -45 114
-38 133 6 15 8 14 20 -8 10 -16 15 -20 16 -10 1 8 5 -3 9 -25 l6 -40 8 30 c4
17 15 45 24 63 l17 33 9 -30 c7 -24 4 -42 -10 -74z m300 -107 c14 -22 26 -47
26 -55 0 -27 -29 -73 -50 -80 -30 -9 -75 16 -75 43 0 12 4 21 10 20 5 -2 12
11 16 27 l5 30 17 -35 17 -35 -5 32 c-4 27 -2 31 15 28 24 -5 24 -2 5 35 -22
42 -12 37 19 -10z m2185 -150 c19 -116 14 -208 -30 -609 l-13 -114 -14 39
c-10 27 -16 93 -18 219 -4 241 -11 318 -40 426 -13 50 -24 94 -24 99 0 4 12
10 26 13 19 3 27 0 33 -17 18 -48 33 -161 40 -302 l8 -149 1 145 c1 108 -3
168 -17 238 -16 74 -17 99 -8 125 l11 32 17 -40 c10 -23 23 -70 28 -105z
m-1766 42 c28 -29 28 -31 13 -60 -24 -47 -75 -92 -103 -92 -35 0 -90 36 -108
70 -8 16 -14 46 -14 67 1 23 3 29 6 16 6 -31 23 -29 23 1 0 14 5 28 10 31 6 4
10 -6 10 -24 0 -32 14 -49 26 -30 4 8 16 -5 30 -32 25 -47 30 -44 14 10 -8 30
-7 33 10 28 22 -6 26 3 9 20 -9 9 -6 10 11 6 20 -5 21 -4 10 16 -10 20 -10 22
7 13 10 -6 31 -24 46 -40z m1172 17 c-9 -28 -22 -298 -14 -293 3 2 9 54 13
116 4 62 9 128 13 147 6 35 6 34 34 -38 25 -66 26 -75 14 -105 -38 -91 -64
-386 -42 -471 6 -20 5 -27 -2 -20 -19 19 -60 161 -70 245 -12 95 -13 379 -1
317 10 -54 16 -54 24 -1 7 57 25 124 32 124 3 0 2 -9 -1 -21z m866 -197 c12
-51 19 -95 17 -98 -14 -13 -86 157 -102 241 -5 26 -2 24 19 -15 27 -50 32 -50
11 1 -27 67 -25 83 4 24 16 -33 39 -102 51 -153z m-2821 82 c-17 -60 -41 -80
-33 -27 7 47 34 103 41 85 2 -8 -1 -33 -8 -58z m6224 -48 c67 -100 158 -280
180 -355 28 -95 17 -203 -26 -263 -32 -46 -111 -34 -155 22 -7 8 -29 55 -50
104 -87 207 -217 352 -453 505 -52 34 -91 61 -86 61 4 0 47 -20 95 -45 195
-101 325 -249 475 -541 51 -100 78 -124 123 -108 72 25 89 155 38 299 -33 96
-99 230 -166 337 -63 102 -46 91 25 -16z m-5716 -4 c-2 -21 -9 -28 -30 -30
-28 -3 -96 27 -117 51 -10 13 -7 15 23 12 20 -2 41 -7 47 -11 9 -5 10 -2 5 11
-5 15 -4 16 9 5 13 -11 14 -8 9 21 l-6 34 32 -33 c22 -24 30 -41 28 -60z
m2475 -79 c128 -214 321 -563 314 -569 -10 -11 -152 165 -242 301 -97 144
-220 375 -201 375 2 0 43 -63 91 -140 48 -77 89 -140 91 -140 3 0 -14 33 -36
73 -66 115 -130 257 -117 257 3 0 48 -71 100 -157z m-3118 48 c-4 -30 -10 -64
-15 -75 -6 -18 -9 -16 -19 19 -13 47 -15 113 -2 80 6 -15 10 -9 16 30 7 46 8
48 17 25 5 -14 6 -49 3 -79z m6106 57 c50 -38 166 -177 227 -270 47 -73 111
-222 99 -234 -3 -3 -11 12 -17 33 -20 60 -90 190 -138 257 -25 33 -88 105
-141 160 -95 98 -101 110 -30 54z m-3621 -113 c41 -89 50 -150 50 -323 l-1
-157 -19 35 c-44 81 -81 181 -71 194 7 8 6 27 -4 61 -22 73 -17 77 16 10 16
-33 27 -51 24 -41 -35 122 -64 272 -65 331 0 25 31 -24 70 -110z m-2021 68 c1
-1 -1 -7 -5 -15 -4 -7 -7 -29 -5 -49 3 -48 -38 -100 -66 -83 -11 7 -19 25 -21
50 l-2 39 16 -28 c20 -37 30 -28 15 13 -9 27 -8 31 4 26 20 -7 19 3 -2 26 -15
17 -15 18 6 18 18 0 20 3 11 19 -17 33 -11 36 18 10 15 -13 29 -25 31 -26z
m795 -45 c-4 -18 -12 -55 -20 -82 -8 -27 -14 -61 -14 -75 l0 -25 -16 23 c-12
17 -19 20 -24 11 -10 -16 -67 15 -84 45 -6 11 -12 22 -14 24 -1 3 -8 -4 -16
-14 -13 -18 -14 -18 -25 3 -14 26 -16 65 -1 42 10 -16 9 -17 39 33 28 45 41
47 41 6 0 -24 4 -30 15 -25 8 3 15 0 15 -7 0 -9 2 -9 8 0 5 8 13 9 22 3 22
-14 40 -12 40 5 0 20 22 65 31 65 5 0 6 -15 3 -32z m-955 -23 c1 17 3 18 11 5
8 -12 10 -10 10 10 0 20 2 22 10 10 13 -20 13 -97 0 -105 -14 -9 -48 12 -55
35 -3 10 -3 36 2 57 l7 38 7 -35 c3 -19 7 -26 8 -15z m4071 35 c-8 -5 -49 -10
-90 -11 -151 -3 -145 -13 25 -42 148 -26 192 -37 152 -37 -48 0 -408 59 -496
82 -22 5 129 15 264 16 106 1 155 -2 145 -8z m-4306 -27 c-4 -16 -15 -44 -25
-63 -17 -35 -17 -35 -23 -10 -7 33 -9 51 -7 75 2 18 4 17 12 -5 10 -24 11 -24
25 -6 8 11 14 23 14 28 0 4 2 8 5 8 3 0 2 -12 -1 -27z m3771 -12 c25 -8 26 -9
8 -10 -13 -1 -23 -5 -23 -11 0 -6 31 -10 73 -11 l72 -1 -35 -15 -35 -16 60
-28 c53 -24 57 -28 30 -28 -48 -1 -109 16 -209 59 -51 22 -116 45 -146 52 -47
11 -51 13 -29 20 30 9 193 2 234 -11z m-3322 -89 c12 -13 17 -32 15 -54 -2
-27 -8 -34 -29 -36 -31 -4 -47 13 -55 59 l-7 34 23 -20 23 -20 -8 25 c-4 14
-10 31 -13 39 -7 18 26 1 51 -27z m2377 -238 c6 -32 23 -103 36 -158 14 -54
23 -100 21 -103 -8 -7 -96 133 -112 177 -8 23 -17 78 -19 123 l-5 82 17 -80
17 -80 4 160 4 160 12 -111 c7 -60 18 -137 25 -170z m-2202 216 c17 -11 32
-24 32 -30 0 -23 -49 -60 -80 -60 -29 0 -75 33 -67 48 2 4 7 16 12 27 7 19 8
19 15 -5 8 -24 8 -24 9 5 l1 30 21 -32 c25 -40 32 -42 19 -7 -19 50 -12 54 38
24z m2342 -170 c69 -166 92 -215 76 -157 -14 48 -56 250 -54 253 2 1 36 -88
76 -199 107 -298 142 -401 138 -404 -8 -8 -171 255 -210 339 -63 136 -129 348
-107 348 3 0 40 -81 81 -180z m1581 108 c79 -39 139 -73 134 -75 -6 -1 -89 24
-185 56 -107 37 -163 60 -145 60 17 1 45 -3 63 -8 40 -12 40 -8 0 18 -65 41
-8 19 133 -51z m94 43 c68 -22 47 -27 -39 -9 -38 7 -53 14 -44 19 17 11 14 12
83 -10z m-665 -15 c131 -20 302 -56 320 -68 10 -6 -5 -8 -48 -5 -36 3 -60 1
-56 -4 3 -5 12 -9 19 -9 19 0 129 -49 123 -55 -2 -2 -28 5 -58 16 -64 24 -220
62 -227 55 -9 -9 80 -49 197 -88 l115 -39 -75 5 -75 5 70 -24 70 -24 -65 5
c-94 8 -186 29 -276 62 -91 33 -286 123 -281 129 3 2 41 -8 87 -22 45 -15 84
-25 86 -22 2 2 -14 17 -36 32 -22 15 -40 30 -40 32 0 5 55 -3 88 -13 9 -3 -3
6 -28 20 -54 30 -42 32 90 12z m-2086 -71 c-17 -90 -16 -111 3 -57 20 56 27
48 12 -14 -20 -83 -54 -144 -160 -284 -56 -74 -114 -160 -128 -190 -29 -63
-35 -53 -29 45 3 56 10 71 66 158 60 93 85 148 116 252 12 44 14 46 16 20 2
-30 2 -30 11 -5 8 22 8 20 5 -10 -7 -57 -43 -142 -101 -237 l-55 -88 56 60
c66 71 119 175 164 323 18 57 33 102 35 100 2 -2 -3 -34 -11 -73z m2891 5 c54
-18 185 -86 185 -95 0 -4 -94 34 -192 78 -32 14 -58 28 -58 31 0 8 1 8 65 -14z
m-4869 -138 c-11 -10 -18 7 -23 55 -3 36 -2 44 6 33 9 -13 11 -12 13 5 1 11 3
-4 5 -34 2 -29 2 -56 -1 -59z m249 41 c29 -43 33 -94 9 -118 -22 -21 -41 -5
-46 40 -4 36 5 47 16 19 4 -9 9 -14 12 -11 3 3 -2 20 -12 39 l-17 33 23 -20
24 -20 -23 38 c-29 48 -19 48 14 0z m290 -71 c4 -4 4 9 0 28 l-7 35 22 -20
c16 -14 22 -15 18 -5 -19 53 -20 62 -7 58 8 -3 22 -19 33 -37 17 -29 17 -37 6
-74 -9 -27 -15 -36 -18 -24 -5 22 -22 12 -22 -14 0 -24 -12 -24 -35 1 -10 11
-25 19 -34 18 -30 -5 -36 44 -11 98 l22 49 13 -53 c7 -29 16 -56 20 -60z m346
91 c37 -7 61 -33 30 -33 -24 0 -25 -4 -11 -30 13 -24 -5 -38 -65 -49 -57 -11
-71 -7 -79 22 -5 21 -6 21 -20 2 -20 -28 -32 -12 -12 17 9 12 16 33 16 45 0
29 4 29 44 -2 44 -33 49 -32 31 11 l-15 36 26 -6 c15 -4 39 -10 55 -13z m277
-28 c35 -33 36 -35 12 -32 -23 2 -25 -1 -22 -36 2 -21 -5 -56 -17 -81 l-19
-44 -43 9 c-54 12 -59 16 -59 40 0 11 -4 17 -10 14 -5 -3 -10 -15 -10 -26 0
-10 -4 -19 -9 -19 -22 0 -28 70 -10 117 l10 28 20 -27 c26 -35 89 -73 89 -53
0 29 -22 71 -48 93 l-27 22 35 -7 c32 -6 34 -5 21 10 -8 10 -9 17 -3 17 6 0
14 -4 17 -10 3 -5 13 -10 22 -10 13 0 13 3 3 15 -25 30 10 15 48 -20z m-1012
-90 c-9 -30 -21 -57 -26 -60 -14 -9 -48 70 -54 125 l-6 45 11 -40 c19 -71 19
-71 30 -55 8 13 10 13 19 0 7 -11 10 -7 10 18 0 17 5 32 10 32 6 0 11 12 12
28 1 24 2 23 5 -6 2 -18 -3 -57 -11 -87z m4669 95 l58 -20 -19 22 c-12 13 -13
18 -4 13 23 -13 264 -186 275 -197 6 -6 -35 12 -90 40 -55 27 -139 64 -187 82
-89 34 -111 50 -42 31 56 -15 53 -6 -8 22 -65 31 -60 33 17 7z m-960 -132 c76
-53 143 -108 132 -108 -4 0 -46 29 -94 63 -99 72 -163 112 -163 102 0 -3 7
-20 16 -37 17 -33 35 -88 29 -88 -2 0 -19 29 -39 65 -20 36 -44 78 -54 93
l-17 27 60 -34 c33 -19 92 -56 130 -83z m-3850 5 c-4 -27 -9 -52 -12 -57 -10
-15 -23 18 -23 59 0 26 3 35 9 27 7 -11 9 -11 14 2 13 32 19 15 12 -31z m665
12 c-18 -47 -51 -106 -70 -125 -35 -35 -66 -26 -105 32 -41 62 -45 81 -10 48
14 -13 25 -18 25 -12 0 20 16 13 30 -13 16 -29 30 -33 30 -7 0 24 53 100 67
95 6 -2 14 1 18 7 12 20 24 0 15 -25z m4035 -10 c61 -23 169 -84 162 -91 -4
-5 -203 82 -252 109 l-30 17 30 -6 c17 -4 57 -17 90 -29z m-4559 -130 c-23
-34 -33 -32 -45 13 -13 46 -13 52 -1 52 6 0 10 -7 10 -15 0 -26 19 -17 27 13
l7 27 9 -32 c8 -25 6 -38 -7 -58z m670 44 c-27 -68 -30 -83 -12 -76 12 5 16 0
16 -21 l1 -27 29 35 c26 29 30 31 30 14 0 -31 20 -84 32 -84 6 0 7 11 4 27 -5
16 -3 29 4 33 8 5 5 20 -10 51 l-22 44 41 -44 c22 -24 44 -41 48 -37 4 3 1 12
-5 18 -18 18 -14 27 9 21 21 -6 21 -5 4 20 l-17 27 48 -21 c27 -12 51 -23 52
-24 2 -2 -5 -23 -15 -47 -26 -58 -84 -108 -125 -108 -48 0 -113 36 -163 92
-45 50 -45 50 -29 81 l16 31 13 -30 c8 -16 14 -23 14 -15 1 16 42 84 47 78 2
-2 -2 -19 -10 -38z m-392 -50 c30 -35 33 -76 11 -119 -32 -62 -79 -63 -135 -4
-19 20 -29 34 -22 30 7 -5 12 -1 13 11 0 10 3 13 6 6 8 -20 21 -15 25 10 3 20
5 19 25 -13 l23 -35 0 39 c0 28 4 37 14 33 21 -8 28 34 9 55 -9 10 -11 18 -5
18 5 0 22 -14 36 -31z m-406 -6 c-1 -5 2 -24 6 -43 l9 -35 7 35 6 35 8 -38 c6
-26 4 -52 -5 -80 l-13 -40 -13 29 c-16 38 -27 110 -19 129 5 15 18 22 14 8z
m4918 -129 c123 -100 220 -203 302 -320 110 -155 134 -204 37 -74 -174 233
-251 301 -457 406 -82 41 -148 77 -148 79 0 3 30 -6 66 -20 37 -14 71 -25 76
-25 11 0 -8 37 -36 70 -19 22 -18 22 19 -5 22 -16 85 -66 141 -111z m362 11
c39 -37 72 -62 72 -56 0 5 -4 13 -10 16 -5 3 -10 11 -10 18 0 20 129 -163 201
-284 82 -139 125 -230 167 -359 37 -110 83 -273 78 -277 -1 -2 -20 43 -41 99
-109 296 -237 517 -467 805 -107 134 -105 143 10 38z m-4659 -44 c30 -42 28
-94 -5 -120 -32 -25 -55 -26 -94 -6 -35 18 -60 52 -60 80 1 18 2 18 15 -5 l15
-25 -6 27 c-3 15 -1 35 5 45 9 15 10 16 11 2 0 -9 6 -22 13 -28 11 -8 13 -6
13 12 -1 18 4 22 27 19 19 -2 27 2 27 13 0 24 17 18 39 -14z m-553 -31 c-3
-19 -2 -29 4 -25 6 3 10 0 10 -7 0 -9 3 -9 10 2 7 11 10 7 10 -17 0 -43 20
-54 21 -11 0 18 3 27 6 19 4 -10 9 -8 19 10 13 23 13 21 14 -24 0 -61 -14 -87
-45 -87 -46 0 -77 79 -59 148 9 33 17 27 10 -8z m939 -62 c4 -3 -1 -21 -10
-39 -15 -29 -15 -31 -1 -26 9 4 16 2 16 -3 0 -4 14 -12 32 -15 l32 -7 -33 -18
c-39 -20 -39 -20 52 -50 38 -12 67 -24 65 -26 -6 -5 -190 26 -207 36 -9 4 -31
40 -48 79 -28 63 -29 70 -11 60 18 -10 19 -8 13 11 -6 20 -5 21 17 9 20 -11
22 -11 10 3 -12 15 -9 15 27 4 22 -6 43 -14 46 -18z m196 -15 c-16 -57 -14
-68 10 -42 18 22 20 22 15 4 -2 -11 -7 -36 -11 -55 -5 -34 -5 -34 20 13 39 72
50 62 46 -43 -1 -32 0 -33 13 -17 13 17 15 16 36 -10 l22 -28 -8 30 c-5 17 -8
44 -9 60 0 25 4 30 23 29 l22 -1 -22 26 -23 25 27 -17 c45 -28 45 -19 -2 28
-25 26 -38 45 -30 45 24 0 114 -45 130 -65 35 -42 9 -130 -64 -212 -21 -24
-33 -24 -153 -2 -59 12 -61 15 -70 115 -5 57 -2 84 12 119 20 55 31 53 16 -2z
m-385 -56 l26 -32 -6 35 c-5 26 -3 31 5 23 6 -6 14 -33 16 -60 l6 -48 -27 24
c-29 27 -35 18 -10 -18 16 -23 16 -23 -7 -16 -34 10 -139 92 -139 108 0 3 21
-3 46 -14 25 -12 47 -19 50 -17 2 2 -8 21 -21 41 -14 20 -25 39 -25 42 0 11
59 -35 86 -68z m847 -34 c19 6 36 -25 37 -68 0 -56 -62 -139 -107 -143 -37 -4
-101 12 -127 31 -18 13 -17 15 4 56 18 37 25 42 45 37 19 -5 23 -3 19 9 -11
27 5 16 37 -27 30 -41 31 -42 25 -13 -6 24 -33 88 -54 127 -2 3 7 4 20 1 19
-5 21 -3 11 8 -7 7 -13 19 -13 26 0 9 16 3 45 -17 25 -17 51 -30 58 -27z
m-1283 -38 c9 6 30 -25 30 -46 0 -8 -4 -8 -16 2 -27 22 -74 97 -74 116 1 10
12 -3 26 -30 14 -26 29 -45 34 -42z m-318 63 c9 -7 23 -26 32 -43 8 -16 16
-23 16 -15 1 10 4 9 10 -5 7 -17 9 -16 10 10 1 26 3 27 10 10 8 -19 9 -19 9 3
1 37 41 17 41 -21 0 -19 -39 -77 -51 -77 -4 0 -9 8 -12 18 -2 12 -8 8 -19 -18
l-15 -35 -8 38 c-4 20 -11 37 -16 37 -5 0 -9 15 -9 33 0 24 -3 28 -10 17 -8
-12 -10 -11 -10 7 0 12 -3 28 -6 37 -7 19 6 21 28 4z m588 -48 c1 8 8 -1 15
-20 7 -19 14 -28 15 -20 1 9 6 5 13 -10 l11 -25 4 29 4 28 29 -28 c28 -26 43
-22 17 5 -7 7 6 4 30 -8 23 -12 42 -24 42 -26 0 -12 -86 -65 -105 -65 -13 0
-30 10 -38 23 -15 20 -16 21 -16 3 -1 -32 -21 -5 -41 56 -18 51 -19 52 -19 18
-2 -49 -15 -68 -35 -51 -20 16 -22 81 -3 81 7 0 21 17 31 38 l19 37 12 -40 c7
-22 14 -33 15 -25z m350 -89 c0 -9 -9 -31 -21 -50 l-20 -34 -67 6 c-97 8 -114
17 -66 33 21 7 41 11 46 8 4 -3 5 10 2 28 l-5 33 25 -30 c29 -33 35 -28 10 10
-13 20 -13 26 -2 38 11 12 19 12 55 -6 24 -12 43 -28 43 -36z m-845 -57 c-17
-42 -18 -44 -7 -43 27 4 32 -2 21 -23 -8 -17 -4 -15 15 7 17 20 24 23 19 11
-5 -15 -3 -17 7 -11 10 6 12 4 7 -9 -4 -10 -3 -15 3 -11 6 4 11 -10 11 -32 1
-26 3 -30 6 -13 8 52 14 56 31 25 l16 -30 6 25 c6 25 6 25 32 -14 30 -43 28
-58 -8 -75 -53 -24 -84 -14 -141 42 l-53 54 1 64 c1 35 3 56 6 46 5 -18 6 -18
19 2 23 32 26 25 9 -15z m1345 -131 c37 -58 38 -83 4 -122 -22 -26 -33 -31
-70 -31 -54 0 -92 18 -128 60 -31 37 -35 61 -6 35 20 -18 20 -17 20 7 0 54 71
34 94 -26 12 -33 16 -11 4 26 -8 28 -8 39 3 51 12 14 17 13 38 -6 23 -21 24
-21 16 -2 -26 69 -16 73 25 8z m-856 -81 l25 -73 -22 7 c-58 17 -86 77 -72
151 l7 37 19 -24 c10 -14 30 -58 43 -98z m93 30 c12 -32 14 -49 6 -61 -16 -25
-55 -20 -71 9 -15 29 -10 93 9 116 12 14 14 14 26 -2 7 -9 20 -37 30 -62z
m-247 -19 c0 -19 -4 -23 -19 -18 -16 5 -18 2 -14 -17 l6 -23 -22 20 c-21 18
-51 66 -51 80 0 3 9 1 20 -5 17 -9 19 -8 13 7 -6 16 -5 16 10 4 15 -12 17 -11
17 5 1 17 3 16 20 -5 11 -13 20 -34 20 -48z m700 -23 c1 37 3 36 30 -37 14
-37 30 -44 30 -13 0 29 17 25 24 -6 4 -14 22 -48 41 -76 19 -28 35 -62 35 -77
0 -25 -2 -24 -44 20 -25 27 -56 50 -74 53 -42 10 -60 34 -72 96 -14 76 -11 91
10 45 l19 -40 1 35z m-877 -30 c4 0 5 5 1 11 -4 7 -1 10 7 7 14 -5 43 -77 35
-85 -11 -11 -75 20 -102 49 l-29 31 28 -7 c18 -4 27 -2 27 6 0 9 3 9 12 0 7
-7 16 -12 21 -12z m701 -22 c31 -44 12 -100 -42 -127 -32 -17 -104 19 -137 67
-30 44 -34 75 -5 41 18 -23 19 -23 20 -4 0 11 5 27 10 35 8 11 9 8 5 -11 -5
-19 -2 -28 9 -32 9 -4 16 -1 16 5 0 7 5 6 15 -2 8 -7 15 -18 15 -24 0 -7 6
-20 13 -29 10 -15 11 -9 9 33 -3 41 -1 50 13 50 12 0 15 5 10 21 -6 18 -5 19
14 10 11 -6 27 -21 35 -33z m-832 -67 c8 -23 9 -23 24 -5 14 18 15 18 9 -6 -6
-23 -4 -22 25 10 l31 35 -4 -27 c-2 -16 0 -25 6 -21 5 3 6 -4 2 -18 -7 -22 -6
-22 21 6 l29 30 3 -29 c3 -22 6 -26 13 -15 6 9 7 -1 3 -28 -4 -29 -3 -43 5
-43 6 0 11 7 11 15 0 8 7 15 15 15 8 0 15 7 15 15 0 23 16 18 28 -11 7 -14 16
-23 21 -19 5 3 13 -5 17 -17 10 -31 -27 -58 -80 -58 -31 0 -59 10 -107 39 -72
43 -95 75 -104 141 -5 43 -2 42 17 -9z m643 -48 c16 -24 25 -31 25 -20 0 23
17 22 30 -3 6 -11 15 -18 21 -15 5 4 12 -1 15 -10 5 -11 10 -13 19 -5 9 7 19
3 39 -16 l26 -27 -6 34 -7 34 23 -20 23 -20 -7 22 c-5 17 0 30 18 50 22 23 27
25 41 13 37 -31 -13 -137 -74 -158 -23 -8 -37 -6 -69 9 -57 28 -152 120 -152
147 0 30 5 28 35 -15z m1035 2 c52 -19 51 -19 44 3 -3 9 13 -3 35 -28 22 -25
43 -53 46 -63 10 -28 -14 -84 -46 -112 -72 -60 -199 0 -199 94 l0 36 19 -25
19 -24 4 29 3 30 26 -45 c15 -25 37 -54 49 -65 l21 -19 -7 28 c-7 27 -6 29 20
22 25 -6 26 -5 17 13 -6 11 -19 22 -29 25 -25 8 -87 74 -79 83 4 4 28 -8 53
-26 64 -45 67 -32 4 18 -29 23 -50 41 -47 41 2 0 24 -7 47 -15z m-1684 -50
c15 -36 20 -125 7 -125 -13 0 -53 103 -52 130 1 22 2 21 10 -7 13 -44 23 -42
15 2 -9 45 1 45 20 0z m-58 -42 c25 -36 39 -78 22 -68 -6 4 -2 -11 9 -34 28
-54 26 -60 -8 -27 -20 19 -34 46 -40 78 -18 84 -14 95 17 51z m1369 -45 l22
-20 -5 23 -5 24 15 -25 c15 -25 13 -78 -5 -110 -7 -13 -8 -12 -9 3 0 26 -18
20 -34 -12 -23 -44 -75 -54 -141 -27 -38 16 -38 17 -29 65 7 32 24 43 24 14 0
-15 2 -15 19 1 19 17 20 16 41 -23 11 -23 22 -41 25 -41 4 0 -11 55 -20 70 -3
6 0 7 9 4 14 -5 14 -2 0 26 -22 44 -12 47 31 9 30 -26 38 -30 45 -18 7 10 -2
25 -28 53 -36 38 -36 39 -7 22 17 -10 40 -28 52 -38z m-351 5 c-3 9 -4 17 -1
17 7 0 115 -153 111 -157 -2 -3 -18 3 -35 11 -40 21 -44 20 -35 -6 6 -22 5
-21 -23 5 -16 15 -32 24 -36 21 -9 -10 -47 58 -47 85 0 24 0 24 15 5 14 -18
14 -17 15 16 l0 35 21 -25 c14 -16 19 -19 15 -7z m-636 -34 c0 -29 -5 -32 -72
-44 -43 -7 -53 -18 -39 -42 9 -17 10 -17 16 -1 4 10 16 16 31 14 35 -4 42 -15
20 -32 -26 -18 -66 -18 -94 2 -26 18 -75 110 -69 127 2 7 10 0 17 -15 15 -31
31 -38 24 -10 -5 15 2 17 55 16 51 -1 58 1 53 15 -5 14 -3 14 11 2 15 -12 17
-11 17 4 0 14 3 15 15 5 8 -7 15 -25 15 -41z m1767 -126 c-3 21 -1 25 8 17 22
-18 83 -113 90 -140 4 -18 4 -21 -3 -11 -8 11 -11 9 -15 -10 l-4 -24 -8 23
c-4 12 -14 22 -21 22 -8 0 -14 6 -14 13 0 7 -7 4 -15 -7 -11 -14 -15 -16 -15
-5 -1 8 -6 5 -13 -9 -12 -21 -16 -16 -60 80 l-47 102 42 -39 c23 -22 37 -33
31 -25 -7 9 -17 29 -23 45 -10 27 -7 26 30 -15 39 -43 41 -44 37 -17z m-1997
-13 c0 -5 6 -10 13 -10 7 0 21 -16 31 -36 14 -30 14 -36 2 -31 -8 3 -16 1 -18
-5 -5 -13 -42 37 -52 70 -6 16 -3 22 8 22 9 0 16 -4 16 -10z m6 -196 c-1 -21
-2 -22 -20 -6 -21 19 -56 85 -56 104 1 7 18 -7 39 -31 23 -26 38 -53 37 -67z
m1639 50 c18 -39 15 -86 -10 -134 -29 -56 -117 -66 -205 -23 -38 18 -49 28
-37 30 16 4 15 7 -5 24 l-23 20 32 -16 c18 -8 54 -18 80 -22 44 -6 47 -5 34
10 -17 22 -7 22 27 0 23 -16 21 -10 -16 38 -23 31 -42 59 -42 62 0 4 15 -2 33
-13 43 -26 55 -25 30 3 -38 42 -36 49 9 23 67 -39 93 -33 68 15 -6 11 -7 19
-1 19 5 0 16 -16 26 -36z m-610 -64 c3 0 -2 14 -10 31 -19 36 -13 49 13 26 24
-22 32 -21 32 1 1 13 8 9 30 -16 60 -65 28 -137 -61 -137 -44 0 -99 40 -131
95 -11 19 -13 26 -4 16 16 -20 21 -14 17 27 -3 26 8 21 20 -10 10 -26 12 -27
19 -8 5 11 9 31 9 44 1 22 5 19 31 -22 16 -26 32 -47 35 -47z m-952 18 c-2 -5
7 -8 20 -8 14 0 25 -6 24 -12 0 -7 1 -26 2 -43 1 -23 3 -27 11 -15 6 10 10 11
10 3 0 -7 4 -13 9 -13 5 0 7 10 4 23 -4 21 -3 21 11 -3 14 -23 15 -23 16 -5 1
18 2 17 15 -5 14 -25 14 -25 9 10 -6 34 -6 34 10 15 16 -19 16 -19 10 10 -3
17 -7 36 -10 43 -8 26 17 0 36 -39 l20 -39 -41 -40 c-24 -23 -51 -40 -64 -40
-39 0 -115 109 -115 165 0 22 2 24 14 13 8 -7 12 -16 9 -20z m371 0 l-6 -33
25 30 c23 27 25 27 20 7 -4 -18 -2 -21 11 -16 21 8 20 -8 -4 -56 -23 -45 -42
-50 -64 -18 -21 29 -20 77 1 100 22 24 23 23 17 -14z m186 -76 c26 -39 43 -88
24 -69 -4 3 -18 -3 -32 -13 -13 -11 -33 -20 -43 -20 -29 0 -59 48 -59 94 l1
41 19 -24 c12 -14 20 -18 20 -10 1 8 8 3 16 -11 15 -25 15 -24 9 13 -3 21 -9
46 -12 55 -11 29 22 -4 57 -56z m206 -82 c2 0 0 9 -6 21 -17 31 -5 34 15 3 9
-15 20 -45 23 -67 l5 -39 -27 17 -26 17 0 -41 c0 -42 -12 -53 -28 -25 -7 13
-10 10 -16 -17 l-6 -33 -32 30 c-20 19 -29 23 -25 12 9 -25 -8 -31 -32 -10
-13 10 -24 33 -26 57 -4 30 -3 35 4 20 8 -17 10 -16 10 12 1 31 21 59 21 30 0
-8 9 -25 20 -38 22 -27 26 -19 8 14 -10 20 -10 21 6 8 15 -12 16 -12 9 5 -6
16 -5 17 9 6 15 -12 15 -9 3 32 -8 26 -12 46 -9 46 3 0 16 -12 30 -27 18 -20
22 -22 16 -8 -18 39 0 47 24 11 14 -20 27 -36 30 -36z m370 -75 c4 -32 3 -36
-6 -22 -16 26 -25 21 -45 -24 -26 -56 -58 -79 -112 -79 -50 0 -117 30 -134 61
-10 20 -9 21 30 14 l41 -7 0 33 0 33 30 -34 c32 -39 38 -29 15 27 -19 45 -19
49 2 32 15 -12 16 -12 10 4 -6 16 -4 16 31 1 59 -26 72 -28 72 -12 0 8 -6 20
-12 27 -11 11 -9 11 9 2 32 -16 33 -15 34 32 l1 42 14 -45 c8 -25 17 -63 20
-85z m-1113 -4 c3 8 6 -3 6 -25 1 -30 4 -37 16 -32 12 4 15 -3 15 -31 0 -31
-2 -34 -16 -22 -24 20 -55 88 -59 128 l-3 36 17 -34 c13 -23 20 -30 24 -20z
m138 0 c6 10 9 7 9 -12 0 -37 22 -54 50 -39 30 16 34 7 15 -29 -39 -76 -119
-5 -99 87 8 37 8 37 12 8 3 -22 6 -26 13 -15z m1226 -67 c9 -24 -7 -83 -31
-110 -18 -22 -34 -28 -77 -31 -68 -6 -104 8 -124 47 -17 33 -11 38 23 14 21
-15 22 -14 22 13 l1 28 15 -27 c19 -37 25 -35 18 5 l-5 32 16 -27 c19 -33 30
-36 22 -7 l-6 21 23 -21 c35 -33 51 -26 25 10 l-22 31 21 -11 c27 -14 29 1 7
39 -25 44 -19 52 25 30 23 -12 43 -27 47 -36z m-340 -223 c8 -18 12 -35 9 -38
-3 -3 -27 16 -54 41 -27 26 -58 54 -68 62 -18 14 -17 15 9 9 18 -3 27 -1 27 7
0 20 61 -44 77 -81z m-878 -25 c6 -4 11 -21 11 -37 0 -18 4 -28 10 -24 6 3 10
-4 11 -17 1 -17 4 -13 13 15 l12 38 24 -33 24 -33 7 25 c5 21 7 23 14 8 11
-28 26 -21 20 10 -4 21 -1 18 16 -14 25 -48 21 -70 -18 -85 -92 -35 -201 74
-185 183 l5 31 12 -30 c7 -17 18 -34 24 -37z m937 -78 c-22 -163 -116 -225
-230 -153 -26 17 -57 46 -69 65 l-21 35 31 -28 30 -28 7 33 7 33 21 -45 21
-45 6 35 6 35 28 -42 c28 -45 46 -59 26 -22 -10 20 -9 21 17 15 l29 -7 -25 21
-25 20 30 -4 c17 -2 24 -1 18 1 -19 6 -17 9 32 54 24 22 47 49 50 60 12 37 18
19 11 -33z m-557 -50 l-21 -43 27 30 26 30 -16 -32 c-19 -40 -19 -49 0 -33 13
11 15 7 15 -26 0 -22 -5 -46 -10 -54 -8 -13 -10 -12 -10 4 0 20 0 20 -15 0
-14 -18 -14 -18 -15 6 l-1 25 -13 -25 -14 -25 -12 27 c-14 31 -7 85 15 114 15
19 15 19 9 -1 -4 -14 2 -10 21 13 36 43 40 40 14 -10z m193 -281 c-17 -31 -39
-56 -54 -61 -43 -15 -96 2 -145 46 -44 42 -86 100 -50 69 11 -9 17 -10 17 -2
0 6 5 11 10 11 6 0 10 -10 10 -22 l0 -23 19 25 19 25 7 -28 c7 -25 9 -26 20
-11 10 15 14 12 35 -21 27 -43 36 -34 21 19 -11 43 -6 45 31 9 15 -15 28 -22
28 -16 0 6 -7 16 -15 23 -8 7 -15 17 -15 23 0 6 11 0 25 -13 27 -26 26 -26 46
10 11 21 14 22 17 7 2 -10 -10 -41 -26 -70z m456 21 c21 -21 14 -63 -15 -90
-55 -51 -97 -59 -206 -37 -49 10 -54 13 -42 26 8 8 19 11 25 8 6 -3 10 4 10
17 l1 23 19 -24 20 -23 0 28 0 29 20 -25 c11 -14 20 -19 20 -11 0 10 5 10 25
-3 29 -19 33 -11 8 16 -16 18 -16 19 12 8 l30 -11 -25 26 -25 26 28 -10 c26
-10 39 1 17 14 -18 11 0 25 34 25 17 0 37 -5 44 -12z m3060 -2658 c11 -17 10
-20 -7 -20 -11 0 -23 -4 -26 -10 -3 -5 -19 -10 -36 -10 -25 0 -29 -4 -29 -26
0 -22 -4 -25 -22 -21 -14 4 -26 0 -34 -11 -12 -16 -13 -15 -22 8 -12 31 1 50
34 50 20 0 24 4 20 24 -5 26 -3 27 89 34 11 1 26 -7 33 -18z m-1743 -218 c17
-9 34 -16 38 -17 11 0 27 -27 27 -48 0 -16 -2 -16 -27 2 -16 11 -38 22 -50 26
-20 6 -23 2 -29 -44 -4 -28 -10 -48 -15 -45 -5 3 -9 -3 -10 -13 0 -10 -3 -13
-6 -5 -7 17 -23 15 -23 -3 0 -23 -18 -18 -37 12 -13 19 -14 28 -5 31 6 2 12
11 12 20 0 12 3 13 11 5 20 -20 39 11 39 62 0 43 1 46 23 39 12 -3 36 -14 52
-22z"/>
<path d="M1107 11782 c-33 -36 -12 -122 30 -122 13 0 51 42 53 60 4 30 0 36
-27 35 -23 0 -28 4 -27 23 1 27 -7 28 -29 4z"/>
<path d="M1210 11186 c0 -2 8 -10 18 -17 15 -13 16 -12 3 4 -13 16 -21 21 -21
13z"/>
<path d="M1208 7365 c22 -39 29 -47 35 -38 4 6 -5 21 -20 34 -22 20 -24 21
-15 4z"/>
</g>
</svg>
